G04 #@! TF.GenerationSoftware,KiCad,Pcbnew,(6.0.7-1)-1*
G04 #@! TF.CreationDate,2022-11-13T18:32:43+09:00*
G04 #@! TF.ProjectId,usbSerial,75736253-6572-4696-916c-2e6b69636164,V1.0*
G04 #@! TF.SameCoordinates,Original*
G04 #@! TF.FileFunction,Legend,Top*
G04 #@! TF.FilePolarity,Positive*
%FSLAX46Y46*%
G04 Gerber Fmt 4.6, Leading zero omitted, Abs format (unit mm)*
G04 Created by KiCad (PCBNEW (6.0.7-1)-1) date 2022-11-13 18:32:43*
%MOMM*%
%LPD*%
G01*
G04 APERTURE LIST*
%ADD10C,0.120000*%
%ADD11C,0.200000*%
G04 APERTURE END LIST*
D10*
X-438095Y-4925809D02*
X-438095Y-4468666D01*
X361904Y-4697238D02*
X-438095Y-4697238D01*
X-438095Y-4278190D02*
X361904Y-3744857D01*
X-438095Y-3744857D02*
X361904Y-4278190D01*
X361904Y-3440095D02*
X-438095Y-3440095D01*
X-438095Y-3249619D01*
X-399999Y-3135333D01*
X-323809Y-3059142D01*
X-247619Y-3021047D01*
X-95238Y-2982952D01*
X19047Y-2982952D01*
X171428Y-3021047D01*
X247619Y-3059142D01*
X323809Y-3135333D01*
X361904Y-3249619D01*
X361904Y-3440095D01*
X-2178095Y-4354380D02*
X-2559047Y-4621047D01*
X-2178095Y-4811523D02*
X-2978095Y-4811523D01*
X-2978095Y-4506761D01*
X-2940000Y-4430571D01*
X-2901904Y-4392476D01*
X-2825714Y-4354380D01*
X-2711428Y-4354380D01*
X-2635238Y-4392476D01*
X-2597142Y-4430571D01*
X-2559047Y-4506761D01*
X-2559047Y-4811523D01*
X-2978095Y-4087714D02*
X-2178095Y-3554380D01*
X-2978095Y-3554380D02*
X-2178095Y-4087714D01*
X-2178095Y-3249619D02*
X-2978095Y-3249619D01*
X-2978095Y-3059142D01*
X-2940000Y-2944857D01*
X-2863809Y-2868666D01*
X-2787619Y-2830571D01*
X-2635238Y-2792476D01*
X-2520952Y-2792476D01*
X-2368571Y-2830571D01*
X-2292380Y-2868666D01*
X-2216190Y-2944857D01*
X-2178095Y-3059142D01*
X-2178095Y-3249619D01*
X-5518095Y-4430571D02*
X-5518095Y-4811523D01*
X-5137142Y-4849619D01*
X-5175238Y-4811523D01*
X-5213333Y-4735333D01*
X-5213333Y-4544857D01*
X-5175238Y-4468666D01*
X-5137142Y-4430571D01*
X-5060952Y-4392476D01*
X-4870476Y-4392476D01*
X-4794285Y-4430571D01*
X-4756190Y-4468666D01*
X-4718095Y-4544857D01*
X-4718095Y-4735333D01*
X-4756190Y-4811523D01*
X-4794285Y-4849619D01*
X-5518095Y-4163904D02*
X-4718095Y-3897238D01*
X-5518095Y-3630571D01*
X4680000Y-4392476D02*
X4641904Y-4468666D01*
X4641904Y-4582952D01*
X4680000Y-4697238D01*
X4756190Y-4773428D01*
X4832380Y-4811523D01*
X4984761Y-4849619D01*
X5099047Y-4849619D01*
X5251428Y-4811523D01*
X5327619Y-4773428D01*
X5403809Y-4697238D01*
X5441904Y-4582952D01*
X5441904Y-4506761D01*
X5403809Y-4392476D01*
X5365714Y-4354380D01*
X5099047Y-4354380D01*
X5099047Y-4506761D01*
X5441904Y-4011523D02*
X4641904Y-4011523D01*
X5441904Y-3554380D01*
X4641904Y-3554380D01*
X5441904Y-3173428D02*
X4641904Y-3173428D01*
X4641904Y-2982952D01*
X4680000Y-2868666D01*
X4756190Y-2792476D01*
X4832380Y-2754380D01*
X4984761Y-2716285D01*
X5099047Y-2716285D01*
X5251428Y-2754380D01*
X5327619Y-2792476D01*
X5403809Y-2868666D01*
X5441904Y-2982952D01*
X5441904Y-3173428D01*
X-6015428Y4752380D02*
X-5482095Y4752380D01*
X-6015428Y4409523D02*
X-5596380Y4409523D01*
X-5520190Y4447619D01*
X-5482095Y4523809D01*
X-5482095Y4638095D01*
X-5520190Y4714285D01*
X-5558285Y4752380D01*
X-5520190Y5095238D02*
X-5482095Y5171428D01*
X-5482095Y5323809D01*
X-5520190Y5400000D01*
X-5596380Y5438095D01*
X-5634476Y5438095D01*
X-5710666Y5400000D01*
X-5748761Y5323809D01*
X-5748761Y5209523D01*
X-5786857Y5133333D01*
X-5863047Y5095238D01*
X-5901142Y5095238D01*
X-5977333Y5133333D01*
X-6015428Y5209523D01*
X-6015428Y5323809D01*
X-5977333Y5400000D01*
X-5482095Y5780952D02*
X-6282095Y5780952D01*
X-5977333Y5780952D02*
X-6015428Y5857142D01*
X-6015428Y6009523D01*
X-5977333Y6085714D01*
X-5939238Y6123809D01*
X-5863047Y6161904D01*
X-5634476Y6161904D01*
X-5558285Y6123809D01*
X-5520190Y6085714D01*
X-5482095Y6009523D01*
X-5482095Y5857142D01*
X-5520190Y5780952D01*
X-5520190Y6466666D02*
X-5482095Y6580952D01*
X-5482095Y6771428D01*
X-5520190Y6847619D01*
X-5558285Y6885714D01*
X-5634476Y6923809D01*
X-5710666Y6923809D01*
X-5786857Y6885714D01*
X-5824952Y6847619D01*
X-5863047Y6771428D01*
X-5901142Y6619047D01*
X-5939238Y6542857D01*
X-5977333Y6504761D01*
X-6053523Y6466666D01*
X-6129714Y6466666D01*
X-6205904Y6504761D01*
X-6244000Y6542857D01*
X-6282095Y6619047D01*
X-6282095Y6809523D01*
X-6244000Y6923809D01*
X-5520190Y7571428D02*
X-5482095Y7495238D01*
X-5482095Y7342857D01*
X-5520190Y7266666D01*
X-5596380Y7228571D01*
X-5901142Y7228571D01*
X-5977333Y7266666D01*
X-6015428Y7342857D01*
X-6015428Y7495238D01*
X-5977333Y7571428D01*
X-5901142Y7609523D01*
X-5824952Y7609523D01*
X-5748761Y7228571D01*
X-5482095Y7952380D02*
X-6015428Y7952380D01*
X-5863047Y7952380D02*
X-5939238Y7990476D01*
X-5977333Y8028571D01*
X-6015428Y8104761D01*
X-6015428Y8180952D01*
X-5482095Y8447619D02*
X-6015428Y8447619D01*
X-6282095Y8447619D02*
X-6244000Y8409523D01*
X-6205904Y8447619D01*
X-6244000Y8485714D01*
X-6282095Y8447619D01*
X-6205904Y8447619D01*
X-5482095Y9171428D02*
X-5901142Y9171428D01*
X-5977333Y9133333D01*
X-6015428Y9057142D01*
X-6015428Y8904761D01*
X-5977333Y8828571D01*
X-5520190Y9171428D02*
X-5482095Y9095238D01*
X-5482095Y8904761D01*
X-5520190Y8828571D01*
X-5596380Y8790476D01*
X-5672571Y8790476D01*
X-5748761Y8828571D01*
X-5786857Y8904761D01*
X-5786857Y9095238D01*
X-5824952Y9171428D01*
X-5482095Y9666666D02*
X-5520190Y9590476D01*
X-5596380Y9552380D01*
X-6282095Y9552380D01*
X-4994095Y5780952D02*
X-4194095Y6047619D01*
X-4994095Y6314285D01*
X-4194095Y7000000D02*
X-4194095Y6542857D01*
X-4194095Y6771428D02*
X-4994095Y6771428D01*
X-4879809Y6695238D01*
X-4803619Y6619047D01*
X-4765523Y6542857D01*
X-4270285Y7342857D02*
X-4232190Y7380952D01*
X-4194095Y7342857D01*
X-4232190Y7304761D01*
X-4270285Y7342857D01*
X-4194095Y7342857D01*
X-4994095Y7876190D02*
X-4994095Y7952380D01*
X-4956000Y8028571D01*
X-4917904Y8066666D01*
X-4841714Y8104761D01*
X-4689333Y8142857D01*
X-4498857Y8142857D01*
X-4346476Y8104761D01*
X-4270285Y8066666D01*
X-4232190Y8028571D01*
X-4194095Y7952380D01*
X-4194095Y7876190D01*
X-4232190Y7800000D01*
X-4270285Y7761904D01*
X-4346476Y7723809D01*
X-4498857Y7685714D01*
X-4689333Y7685714D01*
X-4841714Y7723809D01*
X-4917904Y7761904D01*
X-4956000Y7800000D01*
X-4994095Y7876190D01*
X-5838095Y1466666D02*
X-5838095Y1085714D01*
X-6638095Y1085714D01*
X-5838095Y2152380D02*
X-5838095Y1695238D01*
X-5838095Y1923809D02*
X-6638095Y1923809D01*
X-6523809Y1847619D01*
X-6447619Y1771428D01*
X-6409523Y1695238D01*
X6661904Y-2190476D02*
X5861904Y-2190476D01*
X5861904Y-2000000D01*
X5900000Y-1885714D01*
X5976190Y-1809523D01*
X6052380Y-1771428D01*
X6204761Y-1733333D01*
X6319047Y-1733333D01*
X6471428Y-1771428D01*
X6547619Y-1809523D01*
X6623809Y-1885714D01*
X6661904Y-2000000D01*
X6661904Y-2190476D01*
X5938095Y-1428571D02*
X5900000Y-1390476D01*
X5861904Y-1314285D01*
X5861904Y-1123809D01*
X5900000Y-1047619D01*
X5938095Y-1009523D01*
X6014285Y-971428D01*
X6090476Y-971428D01*
X6204761Y-1009523D01*
X6661904Y-1466666D01*
X6661904Y-971428D01*
X-1738095Y2890476D02*
X-1090476Y2890476D01*
X-1014285Y2928571D01*
X-976190Y2966666D01*
X-938095Y3042857D01*
X-938095Y3195238D01*
X-976190Y3271428D01*
X-1014285Y3309523D01*
X-1090476Y3347619D01*
X-1738095Y3347619D01*
X-1661904Y3690476D02*
X-1700000Y3728571D01*
X-1738095Y3804761D01*
X-1738095Y3995238D01*
X-1700000Y4071428D01*
X-1661904Y4109523D01*
X-1585714Y4147619D01*
X-1509523Y4147619D01*
X-1395238Y4109523D01*
X-938095Y3652380D01*
X-938095Y4147619D01*
X6661904Y3066666D02*
X6280952Y2800000D01*
X6661904Y2609523D02*
X5861904Y2609523D01*
X5861904Y2914285D01*
X5900000Y2990476D01*
X5938095Y3028571D01*
X6014285Y3066666D01*
X6128571Y3066666D01*
X6204761Y3028571D01*
X6242857Y2990476D01*
X6280952Y2914285D01*
X6280952Y2609523D01*
X6661904Y3828571D02*
X6661904Y3371428D01*
X6661904Y3600000D02*
X5861904Y3600000D01*
X5976190Y3523809D01*
X6052380Y3447619D01*
X6090476Y3371428D01*
X-1738095Y6890476D02*
X-1090476Y6890476D01*
X-1014285Y6928571D01*
X-976190Y6966666D01*
X-938095Y7042857D01*
X-938095Y7195238D01*
X-976190Y7271428D01*
X-1014285Y7309523D01*
X-1090476Y7347619D01*
X-1738095Y7347619D01*
X-938095Y8147619D02*
X-938095Y7690476D01*
X-938095Y7919047D02*
X-1738095Y7919047D01*
X-1623809Y7842857D01*
X-1547619Y7766666D01*
X-1509523Y7690476D01*
X-5914285Y-133333D02*
X-5876190Y-171428D01*
X-5838095Y-285714D01*
X-5838095Y-361904D01*
X-5876190Y-476190D01*
X-5952380Y-552380D01*
X-6028571Y-590476D01*
X-6180952Y-628571D01*
X-6295238Y-628571D01*
X-6447619Y-590476D01*
X-6523809Y-552380D01*
X-6600000Y-476190D01*
X-6638095Y-361904D01*
X-6638095Y-285714D01*
X-6600000Y-171428D01*
X-6561904Y-133333D01*
X-5838095Y628571D02*
X-5838095Y171428D01*
X-5838095Y400000D02*
X-6638095Y400000D01*
X-6523809Y323809D01*
X-6447619Y247619D01*
X-6409523Y171428D01*
X6585714Y4666666D02*
X6623809Y4628571D01*
X6661904Y4514285D01*
X6661904Y4438095D01*
X6623809Y4323809D01*
X6547619Y4247619D01*
X6471428Y4209523D01*
X6319047Y4171428D01*
X6204761Y4171428D01*
X6052380Y4209523D01*
X5976190Y4247619D01*
X5900000Y4323809D01*
X5861904Y4438095D01*
X5861904Y4514285D01*
X5900000Y4628571D01*
X5938095Y4666666D01*
X5861904Y4933333D02*
X5861904Y5428571D01*
X6166666Y5161904D01*
X6166666Y5276190D01*
X6204761Y5352380D01*
X6242857Y5390476D01*
X6319047Y5428571D01*
X6509523Y5428571D01*
X6585714Y5390476D01*
X6623809Y5352380D01*
X6661904Y5276190D01*
X6661904Y5047619D01*
X6623809Y4971428D01*
X6585714Y4933333D01*
X6661904Y-133333D02*
X6280952Y-400000D01*
X6661904Y-590476D02*
X5861904Y-590476D01*
X5861904Y-285714D01*
X5900000Y-209523D01*
X5938095Y-171428D01*
X6014285Y-133333D01*
X6128571Y-133333D01*
X6204761Y-171428D01*
X6242857Y-209523D01*
X6280952Y-285714D01*
X6280952Y-590476D01*
X5938095Y171428D02*
X5900000Y209523D01*
X5861904Y285714D01*
X5861904Y476190D01*
X5900000Y552380D01*
X5938095Y590476D01*
X6014285Y628571D01*
X6090476Y628571D01*
X6204761Y590476D01*
X6661904Y133333D01*
X6661904Y628571D01*
X6661904Y1009523D02*
X5861904Y1009523D01*
X5861904Y1200000D01*
X5900000Y1314285D01*
X5976190Y1390476D01*
X6052380Y1428571D01*
X6204761Y1466666D01*
X6319047Y1466666D01*
X6471428Y1428571D01*
X6547619Y1390476D01*
X6623809Y1314285D01*
X6661904Y1200000D01*
X6661904Y1009523D01*
X6661904Y2228571D02*
X6661904Y1771428D01*
X6661904Y2000000D02*
X5861904Y2000000D01*
X5976190Y1923809D01*
X6052380Y1847619D01*
X6090476Y1771428D01*
X-5914285Y-1733333D02*
X-5876190Y-1771428D01*
X-5838095Y-1885714D01*
X-5838095Y-1961904D01*
X-5876190Y-2076190D01*
X-5952380Y-2152380D01*
X-6028571Y-2190476D01*
X-6180952Y-2228571D01*
X-6295238Y-2228571D01*
X-6447619Y-2190476D01*
X-6523809Y-2152380D01*
X-6600000Y-2076190D01*
X-6638095Y-1961904D01*
X-6638095Y-1885714D01*
X-6600000Y-1771428D01*
X-6561904Y-1733333D01*
X-6561904Y-1428571D02*
X-6600000Y-1390476D01*
X-6638095Y-1314285D01*
X-6638095Y-1123809D01*
X-6600000Y-1047619D01*
X-6561904Y-1009523D01*
X-6485714Y-971428D01*
X-6409523Y-971428D01*
X-6295238Y-1009523D01*
X-5838095Y-1466666D01*
X-5838095Y-971428D01*
X-6257142Y2833333D02*
X-6257142Y2566666D01*
X-5838095Y2566666D02*
X-6638095Y2566666D01*
X-6638095Y2947619D01*
X-5838095Y3671428D02*
X-5838095Y3214285D01*
X-5838095Y3442857D02*
X-6638095Y3442857D01*
X-6523809Y3366666D01*
X-6447619Y3290476D01*
X-6409523Y3214285D01*
X-4000000Y1800000D02*
X-3800000Y1600000D01*
X-4000000Y1400000D02*
X-4000000Y1800000D01*
X-2200000Y800000D02*
X-2200000Y2400000D01*
X-2200000Y800000D02*
X-5600000Y800000D01*
X-2200000Y2400000D02*
X-5600000Y2400000D01*
X-5600000Y800000D02*
X-5600000Y2400000D01*
X-3800000Y1600000D02*
X-4000000Y1400000D01*
X4000000Y-1600000D02*
X3800000Y-1800000D01*
X2200000Y-2400000D02*
X2200000Y-800000D01*
X5600000Y-2400000D02*
X5600000Y-800000D01*
X3800000Y-1400000D02*
X4000000Y-1600000D01*
X5600000Y-800000D02*
X2200000Y-800000D01*
X3800000Y-1800000D02*
X3800000Y-1400000D01*
X5600000Y-2400000D02*
X2200000Y-2400000D01*
D11*
X1350000Y3100000D02*
G75*
G03*
X1350000Y3100000I-100000J0D01*
G01*
D10*
X3800000Y3000000D02*
X3800000Y3400000D01*
X3800000Y3400000D02*
X4000000Y3200000D01*
X2200000Y2400000D02*
X2200000Y4000000D01*
X5600000Y4000000D02*
X2200000Y4000000D01*
X5600000Y2400000D02*
X2200000Y2400000D01*
X5600000Y2400000D02*
X5600000Y4000000D01*
X4000000Y3200000D02*
X3800000Y3000000D01*
X600000Y6800000D02*
X700000Y6800000D01*
X-700000Y5200000D02*
X-700000Y5700000D01*
X700000Y6800000D02*
X700000Y6300000D01*
X-700000Y6300000D02*
X-700000Y6800000D01*
X-500000Y5200000D02*
X-700000Y5200000D01*
X700000Y5200000D02*
X600000Y5200000D01*
X700000Y5700000D02*
X700000Y5200000D01*
X-700000Y6800000D02*
X-600000Y6800000D01*
X-2200000Y800000D02*
X-5600000Y800000D01*
X-2200000Y-800000D02*
X-2200000Y800000D01*
X-4000000Y200000D02*
X-3800000Y0D01*
X-2200000Y-800000D02*
X-5600000Y-800000D01*
X-4000000Y-200000D02*
X-4000000Y200000D01*
X-3800000Y0D02*
X-4000000Y-200000D01*
X-5600000Y-800000D02*
X-5600000Y800000D01*
X2200000Y4000000D02*
X5600000Y4000000D01*
X5600000Y5600000D02*
X5600000Y4000000D01*
X2200000Y5600000D02*
X5600000Y5600000D01*
X2200000Y5600000D02*
X2200000Y4000000D01*
X4000000Y4600000D02*
X3800000Y4800000D01*
X4000000Y5000000D02*
X4000000Y4600000D01*
X3800000Y4800000D02*
X4000000Y5000000D01*
X3800000Y-200000D02*
X3800000Y200000D01*
X3800000Y200000D02*
X4000000Y0D01*
X5600000Y-800000D02*
X5600000Y800000D01*
X4000000Y0D02*
X3800000Y-200000D01*
X2200000Y-800000D02*
X2200000Y800000D01*
X5600000Y-800000D02*
X2200000Y-800000D01*
X5600000Y800000D02*
X2200000Y800000D01*
X5600000Y2400000D02*
X2200000Y2400000D01*
X4000000Y1600000D02*
X3800000Y1400000D01*
X5600000Y800000D02*
X2200000Y800000D01*
X5600000Y800000D02*
X5600000Y2400000D01*
X3800000Y1800000D02*
X4000000Y1600000D01*
X2200000Y800000D02*
X2200000Y2400000D01*
X3800000Y1400000D02*
X3800000Y1800000D01*
X-4000000Y-1400000D02*
X-3800000Y-1600000D01*
X-3800000Y-1600000D02*
X-4000000Y-1800000D01*
X-2200000Y-2400000D02*
X-5600000Y-2400000D01*
X-4000000Y-1800000D02*
X-4000000Y-1400000D01*
X-2200000Y-800000D02*
X-5600000Y-800000D01*
X-2200000Y-2400000D02*
X-2200000Y-800000D01*
X-5600000Y-2400000D02*
X-5600000Y-800000D01*
X-4000000Y3200000D02*
X-3800000Y3400000D01*
X-5600000Y2400000D02*
X-2200000Y2400000D01*
X-5600000Y4000000D02*
X-5600000Y2400000D01*
X-3800000Y3400000D02*
X-3800000Y3000000D01*
X-3800000Y3000000D02*
X-4000000Y3200000D01*
X-2200000Y4000000D02*
X-2200000Y2400000D01*
X-5600000Y4000000D02*
X-2200000Y4000000D01*
M02*
