G04 #@! TF.GenerationSoftware,KiCad,Pcbnew,(6.0.7-1)-1*
G04 #@! TF.CreationDate,2022-11-14T19:26:16+09:00*
G04 #@! TF.ProjectId,usbSerial,75736253-6572-4696-916c-2e6b69636164,V1.0*
G04 #@! TF.SameCoordinates,Original*
G04 #@! TF.FileFunction,Copper,L2,Bot*
G04 #@! TF.FilePolarity,Positive*
%FSLAX46Y46*%
G04 Gerber Fmt 4.6, Leading zero omitted, Abs format (unit mm)*
G04 Created by KiCad (PCBNEW (6.0.7-1)-1) date 2022-11-14 19:26:16*
%MOMM*%
%LPD*%
G01*
G04 APERTURE LIST*
G04 Aperture macros list*
%AMRoundRect*
0 Rectangle with rounded corners*
0 $1 Rounding radius*
0 $2 $3 $4 $5 $6 $7 $8 $9 X,Y pos of 4 corners*
0 Add a 4 corners polygon primitive as box body*
4,1,4,$2,$3,$4,$5,$6,$7,$8,$9,$2,$3,0*
0 Add four circle primitives for the rounded corners*
1,1,$1+$1,$2,$3*
1,1,$1+$1,$4,$5*
1,1,$1+$1,$6,$7*
1,1,$1+$1,$8,$9*
0 Add four rect primitives between the rounded corners*
20,1,$1+$1,$2,$3,$4,$5,0*
20,1,$1+$1,$4,$5,$6,$7,0*
20,1,$1+$1,$6,$7,$8,$9,0*
20,1,$1+$1,$8,$9,$2,$3,0*%
G04 Aperture macros list end*
G04 #@! TA.AperFunction,ComponentPad*
%ADD10R,1.800000X1.900000*%
G04 #@! TD*
G04 #@! TA.AperFunction,ComponentPad*
%ADD11C,1.500000*%
G04 #@! TD*
G04 #@! TA.AperFunction,ComponentPad*
%ADD12C,1.524000*%
G04 #@! TD*
G04 #@! TA.AperFunction,ComponentPad*
%ADD13RoundRect,0.400000X0.400000X1.100000X-0.400000X1.100000X-0.400000X-1.100000X0.400000X-1.100000X0*%
G04 #@! TD*
G04 #@! TA.AperFunction,ViaPad*
%ADD14C,0.609600*%
G04 #@! TD*
G04 #@! TA.AperFunction,Conductor*
%ADD15C,0.152400*%
G04 #@! TD*
G04 APERTURE END LIST*
D10*
X-3250000Y-12000000D03*
X3250000Y-12000000D03*
D11*
X-5080000Y-6000000D03*
X0Y-6000000D03*
X2540000Y-6000000D03*
X5080000Y-6000000D03*
X-2540000Y-6000000D03*
D12*
X-3500000Y9500000D03*
X-1000000Y9500000D03*
X1000000Y9500000D03*
X3500000Y9500000D03*
D13*
X-5850000Y11900000D03*
X5850000Y11900000D03*
D14*
X1800000Y3900000D03*
X-318890Y3193413D03*
X-1832502Y1600000D03*
X-2000000Y6000000D03*
X500000Y3200000D03*
X1800000Y4800000D03*
X-666300Y-3100000D03*
X308700Y7877561D03*
X-1200000Y-3800000D03*
X1833700Y3000000D03*
X-1700000Y4700000D03*
X500000Y4116300D03*
X1200000Y-3200000D03*
D15*
X2000000Y3900000D02*
X2384200Y4284200D01*
X-439800Y4660200D02*
X-439800Y3314323D01*
X-318890Y3193413D02*
X-1832502Y1679801D01*
X2384200Y4284200D02*
X2384200Y5115800D01*
X2384200Y5115800D02*
X2115800Y5384200D01*
X284200Y5384200D02*
X-439800Y4660200D01*
X-1832502Y1679801D02*
X-1832502Y1600000D01*
X1800000Y3900000D02*
X2000000Y3900000D01*
X2115800Y5384200D02*
X284200Y5384200D01*
X-439800Y3314323D02*
X-318890Y3193413D01*
X-666300Y-3100000D02*
X500000Y-1933700D01*
X300000Y4800000D02*
X1800000Y4800000D01*
X500000Y-1933700D02*
X500000Y3200000D01*
X-84200Y3784200D02*
X-84200Y4415800D01*
X-84200Y4415800D02*
X300000Y4800000D01*
X500000Y3200000D02*
X-84200Y3784200D01*
X308700Y8191300D02*
X-1000000Y9500000D01*
X308700Y7877561D02*
X308700Y8191300D01*
X-1200000Y-3800000D02*
X-1200000Y-4800000D01*
X-1200000Y-4800000D02*
X0Y-6000000D01*
X-660200Y5739800D02*
X-1700000Y4700000D01*
X2263094Y5739800D02*
X-660200Y5739800D01*
X2739800Y3906100D02*
X2739800Y5263094D01*
X1833700Y3000000D02*
X2739800Y3906100D01*
X2739800Y5263094D02*
X2263094Y5739800D01*
X500000Y4116300D02*
X1200000Y3416300D01*
X1200000Y3416300D02*
X1200000Y-3200000D01*
G04 #@! TA.AperFunction,Conductor*
G36*
X4546240Y13471498D02*
G01*
X4592733Y13417842D01*
X4602837Y13347568D01*
X4597540Y13327218D01*
X4597639Y13327191D01*
X4549733Y13148403D01*
X4547786Y13137069D01*
X4542193Y13066010D01*
X4542000Y13061085D01*
X4542000Y12172115D01*
X4546475Y12156876D01*
X4547865Y12155671D01*
X4555548Y12154000D01*
X5978000Y12154000D01*
X6046121Y12133998D01*
X6092614Y12080342D01*
X6104000Y12028000D01*
X6104000Y9910115D01*
X6108475Y9894876D01*
X6109865Y9893671D01*
X6117548Y9892000D01*
X6311085Y9892000D01*
X6316013Y9892193D01*
X6355615Y9895310D01*
X6425095Y9880714D01*
X6475654Y9830871D01*
X6491500Y9769698D01*
X6491500Y-5481940D01*
X6471498Y-5550061D01*
X6417842Y-5596554D01*
X6347568Y-5606658D01*
X6282988Y-5577164D01*
X6251305Y-5535190D01*
X6175946Y-5373583D01*
X6170466Y-5364093D01*
X6141589Y-5322851D01*
X6131113Y-5314477D01*
X6117666Y-5321545D01*
X5452021Y-5987189D01*
X5444408Y-6001132D01*
X5444539Y-6002966D01*
X5448790Y-6009580D01*
X6118391Y-6679180D01*
X6130161Y-6685607D01*
X6142176Y-6676311D01*
X6170466Y-6635907D01*
X6175946Y-6626417D01*
X6251305Y-6464810D01*
X6298223Y-6411525D01*
X6366500Y-6392064D01*
X6434460Y-6412606D01*
X6480525Y-6466629D01*
X6491500Y-6518060D01*
X6491500Y-12950633D01*
X6490000Y-12970018D01*
X6489269Y-12974716D01*
X6486309Y-12993724D01*
X6487473Y-13002626D01*
X6487489Y-13002750D01*
X6487760Y-13033193D01*
X6480766Y-13095264D01*
X6474487Y-13122771D01*
X6447515Y-13199853D01*
X6435273Y-13225274D01*
X6391822Y-13294426D01*
X6374230Y-13316485D01*
X6316485Y-13374230D01*
X6294426Y-13391822D01*
X6225274Y-13435273D01*
X6199853Y-13447515D01*
X6122772Y-13474487D01*
X6095264Y-13480766D01*
X6039774Y-13487018D01*
X6024132Y-13486923D01*
X6024121Y-13487800D01*
X6015149Y-13487690D01*
X6006276Y-13486309D01*
X5997374Y-13487473D01*
X5997372Y-13487473D01*
X5986385Y-13488910D01*
X5974714Y-13490436D01*
X5958379Y-13491500D01*
X4630944Y-13491500D01*
X4562823Y-13471498D01*
X4516330Y-13417842D01*
X4506226Y-13347568D01*
X4530118Y-13289935D01*
X4594786Y-13203649D01*
X4603324Y-13188054D01*
X4648478Y-13067606D01*
X4652105Y-13052351D01*
X4657631Y-13001486D01*
X4658000Y-12994672D01*
X4658000Y-12272115D01*
X4653525Y-12256876D01*
X4652135Y-12255671D01*
X4644452Y-12254000D01*
X1860116Y-12254000D01*
X1844877Y-12258475D01*
X1843672Y-12259865D01*
X1842001Y-12267548D01*
X1842001Y-12994669D01*
X1842371Y-13001490D01*
X1847895Y-13052352D01*
X1851521Y-13067604D01*
X1896676Y-13188054D01*
X1905214Y-13203649D01*
X1969882Y-13289935D01*
X1994730Y-13356442D01*
X1979677Y-13425824D01*
X1929503Y-13476054D01*
X1869056Y-13491500D01*
X-1869056Y-13491500D01*
X-1937177Y-13471498D01*
X-1983670Y-13417842D01*
X-1993774Y-13347568D01*
X-1969882Y-13289935D01*
X-1905214Y-13203649D01*
X-1896676Y-13188054D01*
X-1851522Y-13067606D01*
X-1847895Y-13052351D01*
X-1842369Y-13001486D01*
X-1842000Y-12994672D01*
X-1842000Y-12272115D01*
X-1846475Y-12256876D01*
X-1847865Y-12255671D01*
X-1855548Y-12254000D01*
X-4639884Y-12254000D01*
X-4655123Y-12258475D01*
X-4656328Y-12259865D01*
X-4657999Y-12267548D01*
X-4657999Y-12994669D01*
X-4657629Y-13001490D01*
X-4652105Y-13052352D01*
X-4648479Y-13067604D01*
X-4603324Y-13188054D01*
X-4594786Y-13203649D01*
X-4530118Y-13289935D01*
X-4505270Y-13356442D01*
X-4520323Y-13425824D01*
X-4570497Y-13476054D01*
X-4630944Y-13491500D01*
X-5950634Y-13491500D01*
X-5970019Y-13490000D01*
X-5984852Y-13487690D01*
X-5984856Y-13487690D01*
X-5993725Y-13486309D01*
X-6002627Y-13487473D01*
X-6002632Y-13487473D01*
X-6002751Y-13487489D01*
X-6033188Y-13487760D01*
X-6095263Y-13480766D01*
X-6122768Y-13474488D01*
X-6199859Y-13447513D01*
X-6225275Y-13435273D01*
X-6294427Y-13391822D01*
X-6316486Y-13374230D01*
X-6374230Y-13316486D01*
X-6391822Y-13294427D01*
X-6391823Y-13294426D01*
X-6435274Y-13225273D01*
X-6447513Y-13199859D01*
X-6474488Y-13122768D01*
X-6480766Y-13095264D01*
X-6487018Y-13039776D01*
X-6486923Y-13024133D01*
X-6487800Y-13024122D01*
X-6487690Y-13015150D01*
X-6486309Y-13006277D01*
X-6489110Y-12984852D01*
X-6490436Y-12974716D01*
X-6491500Y-12958379D01*
X-6491500Y-11727885D01*
X-4658000Y-11727885D01*
X-4653525Y-11743124D01*
X-4652135Y-11744329D01*
X-4644452Y-11746000D01*
X-3522115Y-11746000D01*
X-3506876Y-11741525D01*
X-3505671Y-11740135D01*
X-3504000Y-11732452D01*
X-3504000Y-11727885D01*
X-2996000Y-11727885D01*
X-2991525Y-11743124D01*
X-2990135Y-11744329D01*
X-2982452Y-11746000D01*
X-1860116Y-11746000D01*
X-1844877Y-11741525D01*
X-1843672Y-11740135D01*
X-1842001Y-11732452D01*
X-1842001Y-11727885D01*
X1842000Y-11727885D01*
X1846475Y-11743124D01*
X1847865Y-11744329D01*
X1855548Y-11746000D01*
X2977885Y-11746000D01*
X2993124Y-11741525D01*
X2994329Y-11740135D01*
X2996000Y-11732452D01*
X2996000Y-11727885D01*
X3504000Y-11727885D01*
X3508475Y-11743124D01*
X3509865Y-11744329D01*
X3517548Y-11746000D01*
X4639884Y-11746000D01*
X4655123Y-11741525D01*
X4656328Y-11740135D01*
X4657999Y-11732452D01*
X4657999Y-11005331D01*
X4657629Y-10998510D01*
X4652105Y-10947648D01*
X4648479Y-10932396D01*
X4603324Y-10811946D01*
X4594786Y-10796351D01*
X4518285Y-10694276D01*
X4505724Y-10681715D01*
X4403649Y-10605214D01*
X4388054Y-10596676D01*
X4267606Y-10551522D01*
X4252351Y-10547895D01*
X4201486Y-10542369D01*
X4194672Y-10542000D01*
X3522115Y-10542000D01*
X3506876Y-10546475D01*
X3505671Y-10547865D01*
X3504000Y-10555548D01*
X3504000Y-11727885D01*
X2996000Y-11727885D01*
X2996000Y-10560116D01*
X2991525Y-10544877D01*
X2990135Y-10543672D01*
X2982452Y-10542001D01*
X2305331Y-10542001D01*
X2298510Y-10542371D01*
X2247648Y-10547895D01*
X2232396Y-10551521D01*
X2111946Y-10596676D01*
X2096351Y-10605214D01*
X1994276Y-10681715D01*
X1981715Y-10694276D01*
X1905214Y-10796351D01*
X1896676Y-10811946D01*
X1851522Y-10932394D01*
X1847895Y-10947649D01*
X1842369Y-10998514D01*
X1842000Y-11005328D01*
X1842000Y-11727885D01*
X-1842001Y-11727885D01*
X-1842001Y-11005331D01*
X-1842371Y-10998510D01*
X-1847895Y-10947648D01*
X-1851521Y-10932396D01*
X-1896676Y-10811946D01*
X-1905214Y-10796351D01*
X-1981715Y-10694276D01*
X-1994276Y-10681715D01*
X-2096351Y-10605214D01*
X-2111946Y-10596676D01*
X-2232394Y-10551522D01*
X-2247649Y-10547895D01*
X-2298514Y-10542369D01*
X-2305328Y-10542000D01*
X-2977885Y-10542000D01*
X-2993124Y-10546475D01*
X-2994329Y-10547865D01*
X-2996000Y-10555548D01*
X-2996000Y-11727885D01*
X-3504000Y-11727885D01*
X-3504000Y-10560116D01*
X-3508475Y-10544877D01*
X-3509865Y-10543672D01*
X-3517548Y-10542001D01*
X-4194669Y-10542001D01*
X-4201490Y-10542371D01*
X-4252352Y-10547895D01*
X-4267604Y-10551521D01*
X-4388054Y-10596676D01*
X-4403649Y-10605214D01*
X-4505724Y-10681715D01*
X-4518285Y-10694276D01*
X-4594786Y-10796351D01*
X-4603324Y-10811946D01*
X-4648478Y-10932394D01*
X-4652105Y-10947649D01*
X-4657631Y-10998514D01*
X-4658000Y-11005328D01*
X-4658000Y-11727885D01*
X-6491500Y-11727885D01*
X-6491500Y-6519241D01*
X-6471498Y-6451120D01*
X-6417842Y-6404627D01*
X-6347568Y-6394523D01*
X-6282988Y-6424017D01*
X-6251306Y-6465990D01*
X-6236081Y-6498640D01*
X-6176382Y-6626666D01*
X-6176379Y-6626671D01*
X-6174056Y-6631653D01*
X-6170900Y-6636160D01*
X-6170899Y-6636162D01*
X-6142199Y-6677149D01*
X-6047749Y-6812038D01*
X-5892038Y-6967749D01*
X-5711654Y-7094056D01*
X-5512076Y-7187120D01*
X-5299371Y-7244115D01*
X-5080000Y-7263307D01*
X-4860629Y-7244115D01*
X-4647924Y-7187120D01*
X-4448346Y-7094056D01*
X-4267962Y-6967749D01*
X-4112251Y-6812038D01*
X-4017800Y-6677149D01*
X-3989101Y-6636162D01*
X-3989100Y-6636160D01*
X-3985944Y-6631653D01*
X-3983621Y-6626671D01*
X-3983618Y-6626666D01*
X-3924195Y-6499231D01*
X-3877278Y-6445946D01*
X-3809001Y-6426485D01*
X-3741041Y-6447027D01*
X-3695805Y-6499231D01*
X-3636382Y-6626666D01*
X-3636379Y-6626671D01*
X-3634056Y-6631653D01*
X-3630900Y-6636160D01*
X-3630899Y-6636162D01*
X-3602199Y-6677149D01*
X-3507749Y-6812038D01*
X-3352038Y-6967749D01*
X-3171654Y-7094056D01*
X-2972076Y-7187120D01*
X-2759371Y-7244115D01*
X-2540000Y-7263307D01*
X-2320629Y-7244115D01*
X-2107924Y-7187120D01*
X-1908346Y-7094056D01*
X-1727962Y-6967749D01*
X-1572251Y-6812038D01*
X-1477800Y-6677149D01*
X-1449101Y-6636162D01*
X-1449100Y-6636160D01*
X-1445944Y-6631653D01*
X-1443621Y-6626671D01*
X-1443618Y-6626666D01*
X-1384195Y-6499231D01*
X-1337278Y-6445946D01*
X-1269001Y-6426485D01*
X-1201041Y-6447027D01*
X-1155805Y-6499231D01*
X-1096382Y-6626666D01*
X-1096379Y-6626671D01*
X-1094056Y-6631653D01*
X-1090900Y-6636160D01*
X-1090899Y-6636162D01*
X-1062199Y-6677149D01*
X-967749Y-6812038D01*
X-812038Y-6967749D01*
X-631654Y-7094056D01*
X-432076Y-7187120D01*
X-219371Y-7244115D01*
X0Y-7263307D01*
X219371Y-7244115D01*
X432076Y-7187120D01*
X631654Y-7094056D01*
X812038Y-6967749D01*
X967749Y-6812038D01*
X1062200Y-6677149D01*
X1090899Y-6636162D01*
X1090900Y-6636160D01*
X1094056Y-6631653D01*
X1096379Y-6626671D01*
X1096382Y-6626666D01*
X1155805Y-6499231D01*
X1202722Y-6445946D01*
X1270999Y-6426485D01*
X1338959Y-6447027D01*
X1384195Y-6499231D01*
X1443618Y-6626666D01*
X1443621Y-6626671D01*
X1445944Y-6631653D01*
X1449100Y-6636160D01*
X1449101Y-6636162D01*
X1477801Y-6677149D01*
X1572251Y-6812038D01*
X1727962Y-6967749D01*
X1908346Y-7094056D01*
X2107924Y-7187120D01*
X2320629Y-7244115D01*
X2540000Y-7263307D01*
X2759371Y-7244115D01*
X2972076Y-7187120D01*
X3171654Y-7094056D01*
X3234342Y-7050161D01*
X4394393Y-7050161D01*
X4403687Y-7062175D01*
X4444088Y-7090464D01*
X4453584Y-7095947D01*
X4643113Y-7184326D01*
X4653405Y-7188072D01*
X4855401Y-7242196D01*
X4866196Y-7244099D01*
X5074525Y-7262326D01*
X5085475Y-7262326D01*
X5293804Y-7244099D01*
X5304599Y-7242196D01*
X5506595Y-7188072D01*
X5516887Y-7184326D01*
X5706416Y-7095947D01*
X5715912Y-7090464D01*
X5757148Y-7061590D01*
X5765523Y-7051112D01*
X5758457Y-7037668D01*
X5092811Y-6372021D01*
X5078868Y-6364408D01*
X5077034Y-6364539D01*
X5070420Y-6368790D01*
X4400820Y-7038391D01*
X4394393Y-7050161D01*
X3234342Y-7050161D01*
X3352038Y-6967749D01*
X3507749Y-6812038D01*
X3602200Y-6677149D01*
X3630899Y-6636162D01*
X3630900Y-6636160D01*
X3634056Y-6631653D01*
X3636379Y-6626671D01*
X3636382Y-6626666D01*
X3696081Y-6498640D01*
X3742998Y-6445355D01*
X3811276Y-6425894D01*
X3879236Y-6446436D01*
X3924471Y-6498640D01*
X3984054Y-6626417D01*
X3989534Y-6635907D01*
X4018411Y-6677149D01*
X4028887Y-6685523D01*
X4042334Y-6678455D01*
X4707979Y-6012811D01*
X4715592Y-5998868D01*
X4715461Y-5997034D01*
X4711210Y-5990420D01*
X4041609Y-5320820D01*
X4029839Y-5314393D01*
X4017824Y-5323689D01*
X3989534Y-5364093D01*
X3984054Y-5373583D01*
X3924471Y-5501360D01*
X3877554Y-5554645D01*
X3809276Y-5574106D01*
X3741316Y-5553564D01*
X3696081Y-5501360D01*
X3636382Y-5373334D01*
X3636379Y-5373329D01*
X3634056Y-5368347D01*
X3602786Y-5323689D01*
X3510908Y-5192473D01*
X3510906Y-5192470D01*
X3507749Y-5187962D01*
X3352038Y-5032251D01*
X3232983Y-4948887D01*
X4394477Y-4948887D01*
X4401545Y-4962334D01*
X5067189Y-5627979D01*
X5081132Y-5635592D01*
X5082966Y-5635461D01*
X5089580Y-5631210D01*
X5759180Y-4961609D01*
X5765607Y-4949839D01*
X5756313Y-4937825D01*
X5715912Y-4909536D01*
X5706416Y-4904053D01*
X5516887Y-4815674D01*
X5506595Y-4811928D01*
X5304599Y-4757804D01*
X5293804Y-4755901D01*
X5085475Y-4737674D01*
X5074525Y-4737674D01*
X4866196Y-4755901D01*
X4855401Y-4757804D01*
X4653405Y-4811928D01*
X4643113Y-4815674D01*
X4453583Y-4904054D01*
X4444093Y-4909534D01*
X4402851Y-4938411D01*
X4394477Y-4948887D01*
X3232983Y-4948887D01*
X3171654Y-4905944D01*
X2972076Y-4812880D01*
X2759371Y-4755885D01*
X2540000Y-4736693D01*
X2320629Y-4755885D01*
X2107924Y-4812880D01*
X2035873Y-4846478D01*
X1913334Y-4903618D01*
X1913329Y-4903621D01*
X1908347Y-4905944D01*
X1903840Y-4909100D01*
X1903838Y-4909101D01*
X1732473Y-5029092D01*
X1732470Y-5029094D01*
X1727962Y-5032251D01*
X1572251Y-5187962D01*
X1569094Y-5192470D01*
X1569092Y-5192473D01*
X1477214Y-5323689D01*
X1445944Y-5368347D01*
X1443621Y-5373329D01*
X1443618Y-5373334D01*
X1384195Y-5500769D01*
X1337278Y-5554054D01*
X1269001Y-5573515D01*
X1201041Y-5552973D01*
X1155805Y-5500769D01*
X1096382Y-5373334D01*
X1096379Y-5373329D01*
X1094056Y-5368347D01*
X1062786Y-5323689D01*
X970908Y-5192473D01*
X970906Y-5192470D01*
X967749Y-5187962D01*
X812038Y-5032251D01*
X631654Y-4905944D01*
X432076Y-4812880D01*
X219371Y-4755885D01*
X0Y-4736693D01*
X-219371Y-4755885D01*
X-224685Y-4757309D01*
X-224691Y-4757310D01*
X-305146Y-4778868D01*
X-376122Y-4777179D01*
X-426853Y-4746257D01*
X-578395Y-4594715D01*
X-612421Y-4532403D01*
X-615300Y-4505620D01*
X-615300Y-4420340D01*
X-595298Y-4352219D01*
X-582379Y-4336582D01*
X-582664Y-4336343D01*
X-578133Y-4330943D01*
X-573034Y-4326087D01*
X-472061Y-4174110D01*
X-457062Y-4134625D01*
X-409767Y-4010122D01*
X-409766Y-4010117D01*
X-407267Y-4003539D01*
X-398415Y-3940557D01*
X-369129Y-3875884D01*
X-328484Y-3845439D01*
X-328196Y-3845345D01*
X-232959Y-3788573D01*
X-177523Y-3755527D01*
X-177520Y-3755525D01*
X-171468Y-3751917D01*
X-100161Y-3684012D01*
X-44438Y-3630948D01*
X-44436Y-3630945D01*
X-39334Y-3626087D01*
X61639Y-3474110D01*
X85946Y-3410122D01*
X123933Y-3310122D01*
X123934Y-3310117D01*
X126433Y-3303539D01*
X136337Y-3233066D01*
X165625Y-3168393D01*
X225229Y-3129819D01*
X296225Y-3129594D01*
X356073Y-3167787D01*
X386510Y-3238306D01*
X399439Y-3370164D01*
X457033Y-3543299D01*
X551554Y-3699371D01*
X678303Y-3830623D01*
X684195Y-3834478D01*
X684199Y-3834482D01*
X825085Y-3926675D01*
X830981Y-3930533D01*
X837585Y-3932989D01*
X837587Y-3932990D01*
X916490Y-3962334D01*
X1002000Y-3994135D01*
X1182860Y-4018267D01*
X1189871Y-4017629D01*
X1189875Y-4017629D01*
X1329580Y-4004914D01*
X1364571Y-4001729D01*
X1371273Y-3999551D01*
X1371275Y-3999551D01*
X1531405Y-3947522D01*
X1531408Y-3947521D01*
X1538104Y-3945345D01*
X1562952Y-3930533D01*
X1688777Y-3855527D01*
X1688780Y-3855525D01*
X1694832Y-3851917D01*
X1804949Y-3747054D01*
X1821862Y-3730948D01*
X1821864Y-3730945D01*
X1826966Y-3726087D01*
X1927939Y-3574110D01*
X1942938Y-3534625D01*
X1990233Y-3410122D01*
X1990234Y-3410117D01*
X1992733Y-3403539D01*
X1997424Y-3370164D01*
X2017576Y-3226775D01*
X2017576Y-3226770D01*
X2018127Y-3222852D01*
X2018446Y-3200000D01*
X1998107Y-3018675D01*
X1938101Y-2846361D01*
X1841411Y-2691624D01*
X1821294Y-2671366D01*
X1787487Y-2608935D01*
X1784700Y-2582582D01*
X1784700Y2063781D01*
X1804702Y2131902D01*
X1858358Y2178395D01*
X1899278Y2189261D01*
X1998271Y2198271D01*
X2004973Y2200449D01*
X2004975Y2200449D01*
X2165105Y2252478D01*
X2165108Y2252479D01*
X2171804Y2254655D01*
X2180824Y2260032D01*
X2322477Y2344473D01*
X2322480Y2344475D01*
X2328532Y2348083D01*
X2423941Y2438940D01*
X2455562Y2469052D01*
X2455564Y2469055D01*
X2460666Y2473913D01*
X2561639Y2625890D01*
X2576638Y2665375D01*
X2623933Y2789878D01*
X2623934Y2789883D01*
X2626433Y2796461D01*
X2648264Y2951794D01*
X2677552Y3016468D01*
X2683943Y3023353D01*
X3120303Y3459713D01*
X3132695Y3470581D01*
X3150263Y3484061D01*
X3156813Y3489087D01*
X3209172Y3557323D01*
X3231441Y3586345D01*
X3231443Y3586348D01*
X3245509Y3604678D01*
X3245510Y3604680D01*
X3250534Y3611227D01*
X3309450Y3753463D01*
X3329546Y3906100D01*
X3325578Y3936238D01*
X3324500Y3952685D01*
X3324500Y5216516D01*
X3325578Y5232963D01*
X3328467Y5254906D01*
X3329545Y5263094D01*
X3324500Y5301415D01*
X3309450Y5415731D01*
X3299169Y5440552D01*
X3254086Y5549391D01*
X3250534Y5557966D01*
X3250534Y5557967D01*
X3204142Y5618426D01*
X3156813Y5680107D01*
X3150263Y5685133D01*
X3150259Y5685137D01*
X3132691Y5698617D01*
X3120299Y5709485D01*
X2709481Y6120303D01*
X2698613Y6132695D01*
X2685133Y6150263D01*
X2680107Y6156813D01*
X2602480Y6216377D01*
X2557967Y6250534D01*
X2516307Y6267790D01*
X2415731Y6309450D01*
X2407543Y6310528D01*
X2301418Y6324500D01*
X2301413Y6324500D01*
X2263094Y6329545D01*
X2254906Y6328467D01*
X2232961Y6325578D01*
X2216515Y6324500D01*
X-613622Y6324500D01*
X-630069Y6325578D01*
X-652012Y6328467D01*
X-660200Y6329545D01*
X-698519Y6324500D01*
X-698524Y6324500D01*
X-804649Y6310528D01*
X-812837Y6309450D01*
X-820464Y6306291D01*
X-820467Y6306290D01*
X-896157Y6274938D01*
X-955073Y6250534D01*
X-999586Y6216377D01*
X-1077213Y6156813D01*
X-1082239Y6150263D01*
X-1082243Y6150259D01*
X-1095723Y6132691D01*
X-1106591Y6120299D01*
X-1678578Y5548312D01*
X-1740890Y5514286D01*
X-1754499Y5512098D01*
X-1875749Y5499354D01*
X-1882417Y5497084D01*
X-2041810Y5442822D01*
X-2041813Y5442821D01*
X-2048477Y5440552D01*
X-2203886Y5344944D01*
X-2208919Y5340015D01*
X-2326598Y5224775D01*
X-2334250Y5217282D01*
X-2433092Y5063910D01*
X-2495498Y4892451D01*
X-2518366Y4711427D01*
X-2500561Y4529836D01*
X-2442967Y4356701D01*
X-2348446Y4200629D01*
X-2221697Y4069377D01*
X-2215805Y4065522D01*
X-2215801Y4065518D01*
X-2074915Y3973325D01*
X-2069019Y3969467D01*
X-2062415Y3967011D01*
X-2062413Y3967010D01*
X-1983509Y3937666D01*
X-1898000Y3905865D01*
X-1717140Y3881733D01*
X-1710129Y3882371D01*
X-1710125Y3882371D01*
X-1570420Y3895086D01*
X-1535429Y3898271D01*
X-1528727Y3900449D01*
X-1528725Y3900449D01*
X-1368595Y3952478D01*
X-1368592Y3952479D01*
X-1361896Y3954655D01*
X-1330576Y3973325D01*
X-1215017Y4042212D01*
X-1146262Y4059912D01*
X-1078853Y4037630D01*
X-1034191Y3982441D01*
X-1024500Y3933983D01*
X-1024500Y3637051D01*
X-1044589Y3568795D01*
X-1051982Y3557323D01*
X-1114388Y3385864D01*
X-1115270Y3378880D01*
X-1132269Y3244317D01*
X-1160651Y3179240D01*
X-1168181Y3171013D01*
X-1900254Y2438940D01*
X-1962566Y2404914D01*
X-1976176Y2402725D01*
X-2008251Y2399354D01*
X-2014917Y2397085D01*
X-2014920Y2397084D01*
X-2174312Y2342822D01*
X-2174315Y2342821D01*
X-2180979Y2340552D01*
X-2336388Y2244944D01*
X-2466752Y2117282D01*
X-2565594Y1963910D01*
X-2628000Y1792451D01*
X-2650868Y1611427D01*
X-2650181Y1604420D01*
X-2650181Y1604417D01*
X-2640535Y1506043D01*
X-2633063Y1429836D01*
X-2575469Y1256701D01*
X-2480948Y1100629D01*
X-2354199Y969377D01*
X-2348307Y965522D01*
X-2348303Y965518D01*
X-2207417Y873325D01*
X-2201521Y869467D01*
X-2194917Y867011D01*
X-2194915Y867010D01*
X-2116011Y837666D01*
X-2030502Y805865D01*
X-1849642Y781733D01*
X-1842631Y782371D01*
X-1842627Y782371D01*
X-1702922Y795086D01*
X-1667931Y798271D01*
X-1661229Y800449D01*
X-1661227Y800449D01*
X-1501097Y852478D01*
X-1501094Y852479D01*
X-1494398Y854655D01*
X-1469550Y869467D01*
X-1343725Y944473D01*
X-1343722Y944475D01*
X-1337670Y948083D01*
X-1266363Y1015988D01*
X-1210640Y1069052D01*
X-1210638Y1069055D01*
X-1205536Y1073913D01*
X-1104563Y1225890D01*
X-1089564Y1265375D01*
X-1042269Y1389878D01*
X-1042268Y1389883D01*
X-1039769Y1396461D01*
X-1014375Y1577148D01*
X-1014056Y1600000D01*
X-1014497Y1603935D01*
X-1014691Y1607891D01*
X-1013787Y1607935D01*
X-1002204Y1673836D01*
X-978373Y1707040D01*
X-339939Y2345474D01*
X-277627Y2379500D01*
X-262276Y2381859D01*
X-222117Y2385514D01*
X-152465Y2371767D01*
X-101301Y2322546D01*
X-84700Y2260032D01*
X-84700Y-1639320D01*
X-104702Y-1707441D01*
X-121605Y-1728415D01*
X-644878Y-2251688D01*
X-707190Y-2285714D01*
X-720799Y-2287902D01*
X-842049Y-2300646D01*
X-848717Y-2302916D01*
X-1008110Y-2357178D01*
X-1008113Y-2357179D01*
X-1014777Y-2359448D01*
X-1170186Y-2455056D01*
X-1300550Y-2582718D01*
X-1399392Y-2736090D01*
X-1401801Y-2742710D01*
X-1401803Y-2742713D01*
X-1459389Y-2900930D01*
X-1461798Y-2907549D01*
X-1468157Y-2957885D01*
X-1496537Y-3022958D01*
X-1539516Y-3056099D01*
X-1541810Y-3057178D01*
X-1548477Y-3059448D01*
X-1554471Y-3063136D01*
X-1554474Y-3063137D01*
X-1651539Y-3122852D01*
X-1703886Y-3155056D01*
X-1834250Y-3282718D01*
X-1933092Y-3436090D01*
X-1935501Y-3442710D01*
X-1935503Y-3442713D01*
X-1985464Y-3579981D01*
X-1995498Y-3607549D01*
X-2018366Y-3788573D01*
X-2017679Y-3795580D01*
X-2017679Y-3795583D01*
X-2012996Y-3843345D01*
X-2000561Y-3970164D01*
X-1942967Y-4143299D01*
X-1848446Y-4299371D01*
X-1822646Y-4326087D01*
X-1820064Y-4328761D01*
X-1787131Y-4391658D01*
X-1784700Y-4416289D01*
X-1784700Y-4753422D01*
X-1785778Y-4769870D01*
X-1787316Y-4781551D01*
X-1816040Y-4846478D01*
X-1875305Y-4885569D01*
X-1946297Y-4886412D01*
X-1965487Y-4879298D01*
X-2102934Y-4815206D01*
X-2102942Y-4815203D01*
X-2107924Y-4812880D01*
X-2320629Y-4755885D01*
X-2540000Y-4736693D01*
X-2759371Y-4755885D01*
X-2972076Y-4812880D01*
X-3044127Y-4846478D01*
X-3166666Y-4903618D01*
X-3166671Y-4903621D01*
X-3171653Y-4905944D01*
X-3176160Y-4909100D01*
X-3176162Y-4909101D01*
X-3347527Y-5029092D01*
X-3347530Y-5029094D01*
X-3352038Y-5032251D01*
X-3507749Y-5187962D01*
X-3510906Y-5192470D01*
X-3510908Y-5192473D01*
X-3602786Y-5323689D01*
X-3634056Y-5368347D01*
X-3636379Y-5373329D01*
X-3636382Y-5373334D01*
X-3695805Y-5500769D01*
X-3742722Y-5554054D01*
X-3810999Y-5573515D01*
X-3878959Y-5552973D01*
X-3924195Y-5500769D01*
X-3983618Y-5373334D01*
X-3983621Y-5373329D01*
X-3985944Y-5368347D01*
X-4017214Y-5323689D01*
X-4109092Y-5192473D01*
X-4109094Y-5192470D01*
X-4112251Y-5187962D01*
X-4267962Y-5032251D01*
X-4448346Y-4905944D01*
X-4647924Y-4812880D01*
X-4860629Y-4755885D01*
X-5080000Y-4736693D01*
X-5299371Y-4755885D01*
X-5512076Y-4812880D01*
X-5584127Y-4846478D01*
X-5706666Y-4903618D01*
X-5706671Y-4903621D01*
X-5711653Y-4905944D01*
X-5716160Y-4909100D01*
X-5716162Y-4909101D01*
X-5887527Y-5029092D01*
X-5887530Y-5029094D01*
X-5892038Y-5032251D01*
X-6047749Y-5187962D01*
X-6050906Y-5192470D01*
X-6050908Y-5192473D01*
X-6142786Y-5323689D01*
X-6174056Y-5368347D01*
X-6176379Y-5373329D01*
X-6176382Y-5373334D01*
X-6251305Y-5534009D01*
X-6298222Y-5587294D01*
X-6366499Y-5606755D01*
X-6434459Y-5586213D01*
X-6480525Y-5532191D01*
X-6491500Y-5480759D01*
X-6491500Y9769698D01*
X-6471498Y9837819D01*
X-6417842Y9884312D01*
X-6355615Y9895310D01*
X-6316013Y9892193D01*
X-6311085Y9892000D01*
X-6122115Y9892000D01*
X-6106876Y9896475D01*
X-6105671Y9897865D01*
X-6104000Y9905548D01*
X-6104000Y9910115D01*
X-5596000Y9910115D01*
X-5591525Y9894876D01*
X-5590135Y9893671D01*
X-5582452Y9892000D01*
X-5388915Y9892000D01*
X-5383990Y9892193D01*
X-5312931Y9897786D01*
X-5301597Y9899733D01*
X-5129183Y9945931D01*
X-5116930Y9950635D01*
X-4958625Y10031295D01*
X-4947610Y10038448D01*
X-4893904Y10081939D01*
X-4828377Y10109265D01*
X-4758479Y10096825D01*
X-4706402Y10048571D01*
X-4688680Y9979822D01*
X-4696190Y9941021D01*
X-4698440Y9936196D01*
X-4755978Y9721463D01*
X-4775353Y9500000D01*
X-4755978Y9278537D01*
X-4698440Y9063804D01*
X-4696118Y9058823D01*
X-4696117Y9058822D01*
X-4606814Y8867311D01*
X-4606811Y8867306D01*
X-4604488Y8862324D01*
X-4601332Y8857817D01*
X-4601331Y8857815D01*
X-4564893Y8805777D01*
X-4476977Y8680219D01*
X-4319781Y8523023D01*
X-4315273Y8519866D01*
X-4315270Y8519864D01*
X-4239505Y8466813D01*
X-4137677Y8395512D01*
X-4132695Y8393189D01*
X-4132690Y8393186D01*
X-3942190Y8304355D01*
X-3936196Y8301560D01*
X-3930888Y8300138D01*
X-3930886Y8300137D01*
X-3885209Y8287898D01*
X-3721463Y8244022D01*
X-3500000Y8224647D01*
X-3278537Y8244022D01*
X-3114791Y8287898D01*
X-3069114Y8300137D01*
X-3069112Y8300138D01*
X-3063804Y8301560D01*
X-3057810Y8304355D01*
X-2867310Y8393186D01*
X-2867305Y8393189D01*
X-2862323Y8395512D01*
X-2760495Y8466813D01*
X-2684730Y8519864D01*
X-2684727Y8519866D01*
X-2680219Y8523023D01*
X-2523023Y8680219D01*
X-2435106Y8805777D01*
X-2398669Y8857815D01*
X-2398668Y8857817D01*
X-2395512Y8862324D01*
X-2393189Y8867306D01*
X-2393186Y8867311D01*
X-2364195Y8929483D01*
X-2317277Y8982768D01*
X-2249000Y9002229D01*
X-2181040Y8981687D01*
X-2135805Y8929483D01*
X-2106814Y8867311D01*
X-2106811Y8867306D01*
X-2104488Y8862324D01*
X-2101332Y8857817D01*
X-2101331Y8857815D01*
X-2064893Y8805777D01*
X-1976977Y8680219D01*
X-1819781Y8523023D01*
X-1815273Y8519866D01*
X-1815270Y8519864D01*
X-1739505Y8466813D01*
X-1637677Y8395512D01*
X-1632695Y8393189D01*
X-1632690Y8393186D01*
X-1442190Y8304355D01*
X-1436196Y8301560D01*
X-1430888Y8300138D01*
X-1430886Y8300137D01*
X-1385209Y8287898D01*
X-1221463Y8244022D01*
X-1000000Y8224647D01*
X-778537Y8244022D01*
X-750046Y8251656D01*
X-685055Y8269070D01*
X-614078Y8267380D01*
X-563349Y8236458D01*
X-518634Y8191743D01*
X-484608Y8129431D01*
X-485249Y8074267D01*
X-486798Y8070012D01*
X-509666Y7888988D01*
X-508979Y7881981D01*
X-508979Y7881978D01*
X-499333Y7783604D01*
X-491861Y7707397D01*
X-434267Y7534262D01*
X-339746Y7378190D01*
X-212997Y7246938D01*
X-207105Y7243083D01*
X-207101Y7243079D01*
X-66215Y7150886D01*
X-60319Y7147028D01*
X-53715Y7144572D01*
X-53713Y7144571D01*
X25191Y7115227D01*
X110700Y7083426D01*
X291560Y7059294D01*
X298571Y7059932D01*
X298575Y7059932D01*
X438280Y7072647D01*
X473271Y7075832D01*
X479973Y7078010D01*
X479975Y7078010D01*
X640105Y7130039D01*
X640108Y7130040D01*
X646804Y7132216D01*
X671652Y7147028D01*
X797477Y7222034D01*
X797480Y7222036D01*
X803532Y7225644D01*
X874839Y7293549D01*
X930562Y7346613D01*
X930564Y7346616D01*
X935666Y7351474D01*
X1036639Y7503451D01*
X1051638Y7542936D01*
X1098933Y7667439D01*
X1098934Y7667444D01*
X1101433Y7674022D01*
X1126827Y7854709D01*
X1127146Y7877561D01*
X1106807Y8058886D01*
X1100861Y8075961D01*
X1097346Y8146868D01*
X1132725Y8208421D01*
X1195767Y8241076D01*
X1208867Y8242919D01*
X1215974Y8243541D01*
X1215983Y8243543D01*
X1221463Y8244022D01*
X1385209Y8287898D01*
X1430886Y8300137D01*
X1430888Y8300138D01*
X1436196Y8301560D01*
X1442190Y8304355D01*
X1632690Y8393186D01*
X1632695Y8393189D01*
X1637677Y8395512D01*
X1702959Y8441223D01*
X2805777Y8441223D01*
X2815074Y8429207D01*
X2858069Y8399102D01*
X2867555Y8393624D01*
X3058993Y8304355D01*
X3069285Y8300609D01*
X3273309Y8245941D01*
X3284104Y8244038D01*
X3494525Y8225628D01*
X3505475Y8225628D01*
X3715896Y8244038D01*
X3726691Y8245941D01*
X3930715Y8300609D01*
X3941007Y8304355D01*
X4132445Y8393624D01*
X4141931Y8399102D01*
X4185764Y8429793D01*
X4194139Y8440271D01*
X4187071Y8453719D01*
X3512812Y9127978D01*
X3498868Y9135592D01*
X3497035Y9135461D01*
X3490420Y9131210D01*
X2812207Y8452997D01*
X2805777Y8441223D01*
X1702959Y8441223D01*
X1739505Y8466813D01*
X1815270Y8519864D01*
X1815273Y8519866D01*
X1819781Y8523023D01*
X1976977Y8680219D01*
X2064894Y8805777D01*
X2101331Y8857815D01*
X2101332Y8857817D01*
X2104488Y8862324D01*
X2106811Y8867306D01*
X2106814Y8867311D01*
X2136081Y8930075D01*
X2182999Y8983360D01*
X2251276Y9002821D01*
X2319236Y8982279D01*
X2364471Y8930075D01*
X2393623Y8867559D01*
X2399103Y8858068D01*
X2429794Y8814235D01*
X2440271Y8805860D01*
X2453718Y8812928D01*
X3127978Y9487188D01*
X3134356Y9498868D01*
X3864408Y9498868D01*
X3864539Y9497035D01*
X3868790Y9490420D01*
X4547003Y8812207D01*
X4558777Y8805777D01*
X4570793Y8815074D01*
X4600897Y8858068D01*
X4606377Y8867559D01*
X4695645Y9058993D01*
X4699391Y9069285D01*
X4754059Y9273309D01*
X4755962Y9284104D01*
X4774372Y9494525D01*
X4774372Y9505475D01*
X4755962Y9715896D01*
X4754059Y9726691D01*
X4699390Y9930719D01*
X4695452Y9941538D01*
X4690949Y10012392D01*
X4725468Y10074432D01*
X4788048Y10107961D01*
X4858821Y10102334D01*
X4893147Y10082552D01*
X4947610Y10038448D01*
X4958625Y10031295D01*
X5116930Y9950635D01*
X5129183Y9945931D01*
X5301597Y9899733D01*
X5312931Y9897786D01*
X5383990Y9892193D01*
X5388915Y9892000D01*
X5577885Y9892000D01*
X5593124Y9896475D01*
X5594329Y9897865D01*
X5596000Y9905548D01*
X5596000Y11627885D01*
X5591525Y11643124D01*
X5590135Y11644329D01*
X5582452Y11646000D01*
X4560115Y11646000D01*
X4544876Y11641525D01*
X4543671Y11640135D01*
X4542000Y11632452D01*
X4542000Y10738916D01*
X4542193Y10733990D01*
X4547786Y10662931D01*
X4549733Y10651597D01*
X4595931Y10479183D01*
X4600635Y10466930D01*
X4645144Y10379575D01*
X4658248Y10309798D01*
X4631548Y10244013D01*
X4591502Y10210841D01*
X4546281Y10187071D01*
X3872022Y9512812D01*
X3864408Y9498868D01*
X3134356Y9498868D01*
X3135592Y9501132D01*
X3135461Y9502965D01*
X3131210Y9509580D01*
X2452997Y10187793D01*
X2441223Y10194223D01*
X2429207Y10184926D01*
X2399103Y10141932D01*
X2393623Y10132441D01*
X2364471Y10069925D01*
X2317553Y10016640D01*
X2249276Y9997179D01*
X2181316Y10017721D01*
X2136081Y10069925D01*
X2106814Y10132689D01*
X2106811Y10132694D01*
X2104488Y10137676D01*
X2101331Y10142185D01*
X1980136Y10315270D01*
X1980134Y10315273D01*
X1976977Y10319781D01*
X1819781Y10476977D01*
X1815273Y10480134D01*
X1815270Y10480136D01*
X1739505Y10533187D01*
X1701599Y10559729D01*
X2805860Y10559729D01*
X2812928Y10546282D01*
X3487188Y9872022D01*
X3501132Y9864408D01*
X3502965Y9864539D01*
X3509580Y9868790D01*
X4187793Y10547003D01*
X4194223Y10558777D01*
X4184926Y10570793D01*
X4141931Y10600898D01*
X4132445Y10606376D01*
X3941007Y10695645D01*
X3930715Y10699391D01*
X3726691Y10754059D01*
X3715896Y10755962D01*
X3505475Y10774372D01*
X3494525Y10774372D01*
X3284104Y10755962D01*
X3273309Y10754059D01*
X3069285Y10699391D01*
X3058993Y10695645D01*
X2867559Y10606377D01*
X2858068Y10600897D01*
X2814235Y10570206D01*
X2805860Y10559729D01*
X1701599Y10559729D01*
X1637677Y10604488D01*
X1632695Y10606811D01*
X1632690Y10606814D01*
X1441178Y10696117D01*
X1441177Y10696118D01*
X1436196Y10698440D01*
X1430888Y10699862D01*
X1430886Y10699863D01*
X1365051Y10717503D01*
X1221463Y10755978D01*
X1000000Y10775353D01*
X778537Y10755978D01*
X634949Y10717503D01*
X569114Y10699863D01*
X569112Y10699862D01*
X563804Y10698440D01*
X558823Y10696118D01*
X558822Y10696117D01*
X367311Y10606814D01*
X367306Y10606811D01*
X362324Y10604488D01*
X357817Y10601332D01*
X357815Y10601331D01*
X184730Y10480136D01*
X184727Y10480134D01*
X180219Y10476977D01*
X89095Y10385853D01*
X26783Y10351827D01*
X-44032Y10356892D01*
X-89095Y10385853D01*
X-180219Y10476977D01*
X-184727Y10480134D01*
X-184730Y10480136D01*
X-260495Y10533187D01*
X-362323Y10604488D01*
X-367305Y10606811D01*
X-367310Y10606814D01*
X-558822Y10696117D01*
X-558823Y10696118D01*
X-563804Y10698440D01*
X-569112Y10699862D01*
X-569114Y10699863D01*
X-634949Y10717503D01*
X-778537Y10755978D01*
X-1000000Y10775353D01*
X-1221463Y10755978D01*
X-1365051Y10717503D01*
X-1430886Y10699863D01*
X-1430888Y10699862D01*
X-1436196Y10698440D01*
X-1441177Y10696118D01*
X-1441178Y10696117D01*
X-1632689Y10606814D01*
X-1632694Y10606811D01*
X-1637676Y10604488D01*
X-1642183Y10601332D01*
X-1642185Y10601331D01*
X-1815270Y10480136D01*
X-1815273Y10480134D01*
X-1819781Y10476977D01*
X-1976977Y10319781D01*
X-1980134Y10315273D01*
X-1980136Y10315270D01*
X-2101331Y10142185D01*
X-2104488Y10137676D01*
X-2106811Y10132694D01*
X-2106814Y10132689D01*
X-2135805Y10070517D01*
X-2182723Y10017232D01*
X-2251000Y9997771D01*
X-2318960Y10018313D01*
X-2364195Y10070517D01*
X-2393186Y10132689D01*
X-2393189Y10132694D01*
X-2395512Y10137676D01*
X-2398669Y10142185D01*
X-2519864Y10315270D01*
X-2519866Y10315273D01*
X-2523023Y10319781D01*
X-2680219Y10476977D01*
X-2684727Y10480134D01*
X-2684730Y10480136D01*
X-2760495Y10533187D01*
X-2862323Y10604488D01*
X-2867305Y10606811D01*
X-2867310Y10606814D01*
X-3058822Y10696117D01*
X-3058823Y10696118D01*
X-3063804Y10698440D01*
X-3069112Y10699862D01*
X-3069114Y10699863D01*
X-3134949Y10717503D01*
X-3278537Y10755978D01*
X-3500000Y10775353D01*
X-3721463Y10755978D01*
X-3865051Y10717503D01*
X-3930886Y10699863D01*
X-3930888Y10699862D01*
X-3936196Y10698440D01*
X-3941177Y10696118D01*
X-3941178Y10696117D01*
X-4132689Y10606814D01*
X-4132694Y10606811D01*
X-4137676Y10604488D01*
X-4142183Y10601332D01*
X-4142185Y10601331D01*
X-4315270Y10480136D01*
X-4315273Y10480134D01*
X-4319781Y10476977D01*
X-4365309Y10431449D01*
X-4427621Y10397423D01*
X-4498436Y10402488D01*
X-4555272Y10445035D01*
X-4580083Y10511555D01*
X-4576111Y10553155D01*
X-4549733Y10651598D01*
X-4547786Y10662931D01*
X-4542193Y10733990D01*
X-4542000Y10738916D01*
X-4542000Y11627885D01*
X-4546475Y11643124D01*
X-4547865Y11644329D01*
X-4555548Y11646000D01*
X-5577885Y11646000D01*
X-5593124Y11641525D01*
X-5594329Y11640135D01*
X-5596000Y11632452D01*
X-5596000Y9910115D01*
X-6104000Y9910115D01*
X-6104000Y11907075D01*
X-3263355Y11907075D01*
X-3245430Y11710112D01*
X-3189590Y11520381D01*
X-3186737Y11514923D01*
X-3186735Y11514919D01*
X-3139280Y11424147D01*
X-3097960Y11345110D01*
X-2974032Y11190975D01*
X-2969308Y11187011D01*
X-2962067Y11180935D01*
X-2822526Y11063846D01*
X-2817128Y11060879D01*
X-2817123Y11060875D01*
X-2673820Y10982095D01*
X-2649213Y10968567D01*
X-2643346Y10966706D01*
X-2643344Y10966705D01*
X-2466564Y10910627D01*
X-2460694Y10908765D01*
X-2306773Y10891500D01*
X-2200231Y10891500D01*
X-2197175Y10891800D01*
X-2197168Y10891800D01*
X-2138660Y10897537D01*
X-2053167Y10905920D01*
X-2047266Y10907702D01*
X-2047264Y10907702D01*
X-1973947Y10929838D01*
X-1863831Y10963084D01*
X-1689204Y11055934D01*
X-1602938Y11126291D01*
X-1540713Y11177040D01*
X-1540710Y11177043D01*
X-1535938Y11180935D01*
X-1523656Y11195781D01*
X-1413799Y11328575D01*
X-1413797Y11328579D01*
X-1409870Y11333325D01*
X-1315802Y11507299D01*
X-1257318Y11696232D01*
X-1236645Y11892925D01*
X-1237933Y11907075D01*
X1236645Y11907075D01*
X1254570Y11710112D01*
X1310410Y11520381D01*
X1313263Y11514923D01*
X1313265Y11514919D01*
X1360720Y11424147D01*
X1402040Y11345110D01*
X1525968Y11190975D01*
X1530692Y11187011D01*
X1537933Y11180935D01*
X1677474Y11063846D01*
X1682872Y11060879D01*
X1682877Y11060875D01*
X1826180Y10982095D01*
X1850787Y10968567D01*
X1856654Y10966706D01*
X1856656Y10966705D01*
X2033436Y10910627D01*
X2039306Y10908765D01*
X2193227Y10891500D01*
X2299769Y10891500D01*
X2302825Y10891800D01*
X2302832Y10891800D01*
X2361340Y10897537D01*
X2446833Y10905920D01*
X2452734Y10907702D01*
X2452736Y10907702D01*
X2526053Y10929838D01*
X2636169Y10963084D01*
X2810796Y11055934D01*
X2897062Y11126291D01*
X2959287Y11177040D01*
X2959290Y11177043D01*
X2964062Y11180935D01*
X2976344Y11195781D01*
X3086201Y11328575D01*
X3086203Y11328579D01*
X3090130Y11333325D01*
X3184198Y11507299D01*
X3242682Y11696232D01*
X3263355Y11892925D01*
X3245430Y12089888D01*
X3189590Y12279619D01*
X3179919Y12298119D01*
X3100813Y12449432D01*
X3097960Y12454890D01*
X2974032Y12609025D01*
X2967727Y12614316D01*
X2951334Y12628071D01*
X2822526Y12736154D01*
X2817128Y12739121D01*
X2817123Y12739125D01*
X2654608Y12828467D01*
X2654609Y12828467D01*
X2649213Y12831433D01*
X2643346Y12833294D01*
X2643344Y12833295D01*
X2466564Y12889373D01*
X2466563Y12889373D01*
X2460694Y12891235D01*
X2306773Y12908500D01*
X2200231Y12908500D01*
X2197175Y12908200D01*
X2197168Y12908200D01*
X2138660Y12902463D01*
X2053167Y12894080D01*
X2047266Y12892298D01*
X2047264Y12892298D01*
X1973947Y12870162D01*
X1863831Y12836916D01*
X1689204Y12744066D01*
X1602938Y12673709D01*
X1540713Y12622960D01*
X1540710Y12622957D01*
X1535938Y12619065D01*
X1532011Y12614318D01*
X1532009Y12614316D01*
X1413799Y12471425D01*
X1413797Y12471421D01*
X1409870Y12466675D01*
X1315802Y12292701D01*
X1257318Y12103768D01*
X1256674Y12097643D01*
X1256674Y12097642D01*
X1249355Y12028000D01*
X1236645Y11907075D01*
X-1237933Y11907075D01*
X-1254570Y12089888D01*
X-1310410Y12279619D01*
X-1320081Y12298119D01*
X-1399187Y12449432D01*
X-1402040Y12454890D01*
X-1525968Y12609025D01*
X-1532273Y12614316D01*
X-1548666Y12628071D01*
X-1677474Y12736154D01*
X-1682872Y12739121D01*
X-1682877Y12739125D01*
X-1845392Y12828467D01*
X-1845391Y12828467D01*
X-1850787Y12831433D01*
X-1856654Y12833294D01*
X-1856656Y12833295D01*
X-2033436Y12889373D01*
X-2033437Y12889373D01*
X-2039306Y12891235D01*
X-2193227Y12908500D01*
X-2299769Y12908500D01*
X-2302825Y12908200D01*
X-2302832Y12908200D01*
X-2361340Y12902463D01*
X-2446833Y12894080D01*
X-2452734Y12892298D01*
X-2452736Y12892298D01*
X-2526053Y12870162D01*
X-2636169Y12836916D01*
X-2810796Y12744066D01*
X-2897062Y12673709D01*
X-2959287Y12622960D01*
X-2959290Y12622957D01*
X-2964062Y12619065D01*
X-2967989Y12614318D01*
X-2967991Y12614316D01*
X-3086201Y12471425D01*
X-3086203Y12471421D01*
X-3090130Y12466675D01*
X-3184198Y12292701D01*
X-3242682Y12103768D01*
X-3243326Y12097643D01*
X-3243326Y12097642D01*
X-3250645Y12028000D01*
X-3263355Y11907075D01*
X-6104000Y11907075D01*
X-6104000Y12028000D01*
X-6083998Y12096121D01*
X-6030342Y12142614D01*
X-5978000Y12154000D01*
X-4560115Y12154000D01*
X-4544876Y12158475D01*
X-4543671Y12159865D01*
X-4542000Y12167548D01*
X-4542000Y13061085D01*
X-4542193Y13066010D01*
X-4547786Y13137069D01*
X-4549733Y13148403D01*
X-4597639Y13327191D01*
X-4596335Y13327540D01*
X-4601488Y13391115D01*
X-4568055Y13453747D01*
X-4506068Y13488361D01*
X-4478119Y13491500D01*
X4478119Y13491500D01*
X4546240Y13471498D01*
G37*
G04 #@! TD.AperFunction*
M02*
