M48
; DRILL file {KiCad (6.0.7-1)-1} date 
; FORMAT={-:-/ absolute / metric / decimal}
; #@! TF.CreationDate,2022-11-14T19:26:18+09:00
; #@! TF.GenerationSoftware,Kicad,Pcbnew,(6.0.7-1)-1
; #@! TF.FileFunction,MixedPlating,1,2
FMAT,2
METRIC
; #@! TA.AperFunction,Plated,PTH,ViaDrill
T1C0.305
; #@! TA.AperFunction,Plated,PTH,ComponentDrill
T2C0.800
; #@! TA.AperFunction,Plated,PTH,ComponentDrill
T3C0.900
; #@! TA.AperFunction,Plated,PTH,ComponentDrill
T4C0.930
; #@! TA.AperFunction,Plated,PTH,ComponentDrill
T5C1.200
; #@! TA.AperFunction,NonPlated,NPTH,ComponentDrill
T6C1.000
%
G90
G05
T1
X-2.0Y6.0
X-1.833Y1.6
X-1.7Y4.7
X-1.2Y-3.8
X-0.666Y-3.1
X-0.319Y3.193
X0.309Y7.878
X0.5Y4.116
X0.5Y3.2
X1.2Y-3.2
X1.8Y4.8
X1.8Y3.9
X1.834Y3.0
T2
X-3.25Y-12.0
X3.25Y-12.0
T3
X-5.08Y-6.0
X-2.54Y-6.0
X0.0Y-6.0
X2.54Y-6.0
X5.08Y-6.0
T4
X-3.5Y9.5
X-1.0Y9.5
X1.0Y9.5
X3.5Y9.5
T6
X-2.25Y11.9
X2.25Y11.9
T5
G00X-5.85Y11.25
M15
G01X-5.85Y12.55
M16
G05
G00X5.85Y11.25
M15
G01X5.85Y12.55
M16
G05
T0
M30
