G04 #@! TF.GenerationSoftware,KiCad,Pcbnew,(6.0.7-1)-1*
G04 #@! TF.CreationDate,2022-11-14T19:26:16+09:00*
G04 #@! TF.ProjectId,usbSerial,75736253-6572-4696-916c-2e6b69636164,V1.0*
G04 #@! TF.SameCoordinates,Original*
G04 #@! TF.FileFunction,Copper,L1,Top*
G04 #@! TF.FilePolarity,Positive*
%FSLAX46Y46*%
G04 Gerber Fmt 4.6, Leading zero omitted, Abs format (unit mm)*
G04 Created by KiCad (PCBNEW (6.0.7-1)-1) date 2022-11-14 19:26:16*
%MOMM*%
%LPD*%
G01*
G04 APERTURE LIST*
G04 Aperture macros list*
%AMRoundRect*
0 Rectangle with rounded corners*
0 $1 Rounding radius*
0 $2 $3 $4 $5 $6 $7 $8 $9 X,Y pos of 4 corners*
0 Add a 4 corners polygon primitive as box body*
4,1,4,$2,$3,$4,$5,$6,$7,$8,$9,$2,$3,0*
0 Add four circle primitives for the rounded corners*
1,1,$1+$1,$2,$3*
1,1,$1+$1,$4,$5*
1,1,$1+$1,$6,$7*
1,1,$1+$1,$8,$9*
0 Add four rect primitives between the rounded corners*
20,1,$1+$1,$2,$3,$4,$5,0*
20,1,$1+$1,$4,$5,$6,$7,0*
20,1,$1+$1,$6,$7,$8,$9,0*
20,1,$1+$1,$8,$9,$2,$3,0*%
G04 Aperture macros list end*
G04 #@! TA.AperFunction,SMDPad,CuDef*
%ADD10RoundRect,0.200000X0.250000X0.200000X-0.250000X0.200000X-0.250000X-0.200000X0.250000X-0.200000X0*%
G04 #@! TD*
G04 #@! TA.AperFunction,SMDPad,CuDef*
%ADD11R,0.300000X1.750000*%
G04 #@! TD*
G04 #@! TA.AperFunction,SMDPad,CuDef*
%ADD12R,2.100000X1.600000*%
G04 #@! TD*
G04 #@! TA.AperFunction,ComponentPad*
%ADD13R,1.800000X1.900000*%
G04 #@! TD*
G04 #@! TA.AperFunction,SMDPad,CuDef*
%ADD14R,0.150000X1.400000*%
G04 #@! TD*
G04 #@! TA.AperFunction,SMDPad,CuDef*
%ADD15R,0.150000X0.350000*%
G04 #@! TD*
G04 #@! TA.AperFunction,SMDPad,CuDef*
%ADD16R,2.500000X1.500000*%
G04 #@! TD*
G04 #@! TA.AperFunction,ComponentPad*
%ADD17C,1.500000*%
G04 #@! TD*
G04 #@! TA.AperFunction,SMDPad,CuDef*
%ADD18R,0.200000X0.675000*%
G04 #@! TD*
G04 #@! TA.AperFunction,SMDPad,CuDef*
%ADD19R,0.700000X0.200000*%
G04 #@! TD*
G04 #@! TA.AperFunction,SMDPad,CuDef*
%ADD20RoundRect,0.200000X-0.250000X-0.200000X0.250000X-0.200000X0.250000X0.200000X-0.250000X0.200000X0*%
G04 #@! TD*
G04 #@! TA.AperFunction,ComponentPad*
%ADD21C,1.524000*%
G04 #@! TD*
G04 #@! TA.AperFunction,ComponentPad*
%ADD22RoundRect,0.400000X0.400000X1.100000X-0.400000X1.100000X-0.400000X-1.100000X0.400000X-1.100000X0*%
G04 #@! TD*
G04 #@! TA.AperFunction,ViaPad*
%ADD23C,0.609600*%
G04 #@! TD*
G04 #@! TA.AperFunction,Conductor*
%ADD24C,0.152400*%
G04 #@! TD*
G04 #@! TA.AperFunction,Conductor*
%ADD25C,0.406400*%
G04 #@! TD*
G04 #@! TA.AperFunction,Conductor*
%ADD26C,0.203200*%
G04 #@! TD*
G04 APERTURE END LIST*
D10*
X-3050000Y1600000D03*
X-4750000Y1600000D03*
D11*
X-1300000Y-9125000D03*
X-650000Y-9125000D03*
X0Y-9125000D03*
X650000Y-9125000D03*
X1300000Y-9125000D03*
D12*
X3100000Y-9450000D03*
D13*
X-3250000Y-12000000D03*
D12*
X-3100000Y-9450000D03*
D13*
X3250000Y-12000000D03*
D10*
X4750000Y-1600000D03*
X3050000Y-1600000D03*
D14*
X1250000Y1800000D03*
X750000Y1800000D03*
X250000Y1800000D03*
X-250000Y1800000D03*
X-750000Y1800000D03*
X-1250000Y1800000D03*
X-1250000Y-1800000D03*
X-750000Y-1800000D03*
X-250000Y-1800000D03*
X250000Y-1800000D03*
X750000Y-1800000D03*
X1250000Y-1800000D03*
D15*
X-750000Y925000D03*
D16*
X0Y0D03*
D17*
X-5080000Y-6000000D03*
X0Y-6000000D03*
D10*
X4750000Y3200000D03*
X3050000Y3200000D03*
D17*
X2540000Y-6000000D03*
D18*
X-275000Y6787500D03*
X275000Y6787500D03*
D19*
X650000Y6000000D03*
D18*
X275000Y5212500D03*
X-275000Y5212500D03*
D19*
X-650000Y6000000D03*
D10*
X-3050000Y0D03*
X-4750000Y0D03*
D20*
X3050000Y4800000D03*
X4750000Y4800000D03*
D10*
X4750000Y0D03*
X3050000Y0D03*
X4750000Y1600000D03*
X3050000Y1600000D03*
D17*
X5080000Y-6000000D03*
D10*
X-3050000Y-1600000D03*
X-4750000Y-1600000D03*
D20*
X-4750000Y3200000D03*
X-3050000Y3200000D03*
D17*
X-2540000Y-6000000D03*
D21*
X-3500000Y9500000D03*
X-1000000Y9500000D03*
X1000000Y9500000D03*
X3500000Y9500000D03*
D22*
X-5850000Y11900000D03*
X5850000Y11900000D03*
D23*
X1800000Y3900000D03*
X-318890Y3193413D03*
X-1832502Y1600000D03*
X-2000000Y6000000D03*
X500000Y3200000D03*
X1800000Y4800000D03*
X-666300Y-3100000D03*
X308700Y7877561D03*
X-1200000Y-3800000D03*
X1833700Y3000000D03*
X-1700000Y4700000D03*
X500000Y4116300D03*
X1200000Y-3200000D03*
D24*
X2500000Y3200000D02*
X1800000Y3900000D01*
D25*
X-3050000Y1600000D02*
X-3050000Y-1600000D01*
D26*
X-3080000Y-8000000D02*
X-5080000Y-6000000D01*
D25*
X-3050000Y-1600000D02*
X-3050000Y-3970000D01*
X-3050000Y-3970000D02*
X-5080000Y-6000000D01*
D24*
X3050000Y3200000D02*
X2500000Y3200000D01*
D26*
X-1300000Y-8000000D02*
X-3080000Y-8000000D01*
D24*
X-1832502Y1600000D02*
X-3050000Y1600000D01*
D26*
X-1300000Y-9125000D02*
X-1300000Y-8000000D01*
D24*
X-318890Y2718890D02*
X-318890Y3193413D01*
X-250000Y2650000D02*
X-318890Y2718890D01*
X-250000Y1800000D02*
X-250000Y2650000D01*
X650000Y6000000D02*
X1500000Y6000000D01*
D26*
X5080000Y-6000000D02*
X3080000Y-8000000D01*
D24*
X-750000Y2650000D02*
X-903090Y2803090D01*
X-650000Y6000000D02*
X-1500000Y6000000D01*
X-903090Y4903090D02*
X-2000000Y6000000D01*
X-750000Y1800000D02*
X-750000Y2650000D01*
X-903090Y2803090D02*
X-903090Y4903090D01*
D26*
X1300000Y-9125000D02*
X1300000Y-8000000D01*
X3080000Y-8000000D02*
X1300000Y-8000000D01*
D24*
X-666300Y-3066300D02*
X-666300Y-3100000D01*
X750000Y2650000D02*
X700000Y2700000D01*
X250000Y2650000D02*
X300000Y2700000D01*
X250000Y1800000D02*
X250000Y2650000D01*
X500000Y2700000D02*
X300000Y2700000D01*
X750000Y1800000D02*
X750000Y2650000D01*
X1800000Y4800000D02*
X3050000Y4800000D01*
X500000Y2700000D02*
X500000Y3200000D01*
X-250000Y-1800000D02*
X-250000Y-2650000D01*
X-250000Y-2650000D02*
X-666300Y-3066300D01*
X700000Y2700000D02*
X500000Y2700000D01*
D26*
X3150000Y1600000D02*
X3050000Y1600000D01*
X4750000Y3200000D02*
X3150000Y1600000D01*
X4750000Y0D02*
X3150000Y-1600000D01*
X3150000Y-1600000D02*
X3050000Y-1600000D01*
D25*
X-4750000Y3200000D02*
X-4750000Y1600000D01*
X-3500000Y9500000D02*
X-3500000Y6600000D01*
X-3500000Y6600000D02*
X-3050000Y6150000D01*
X-3050000Y6150000D02*
X-3050000Y3200000D01*
D24*
X275000Y7843861D02*
X308700Y7877561D01*
X275000Y6787500D02*
X275000Y7843861D01*
X-275000Y8225000D02*
X1000000Y9500000D01*
X-275000Y6787500D02*
X-275000Y8225000D01*
X250000Y-3210000D02*
X-2540000Y-6000000D01*
X250000Y-1800000D02*
X250000Y-3210000D01*
D26*
X-650000Y-7890000D02*
X-2540000Y-6000000D01*
X-650000Y-9125000D02*
X-650000Y-7890000D01*
X0Y-9125000D02*
X0Y-6000000D01*
D24*
X-1200000Y-3800000D02*
X-1250000Y-3750000D01*
X-1250000Y-3750000D02*
X-1250000Y-1800000D01*
D26*
X650000Y-7890000D02*
X2540000Y-6000000D01*
X650000Y-9125000D02*
X650000Y-7890000D01*
D24*
X1833700Y1216300D02*
X1833700Y3000000D01*
X-1250000Y2650000D02*
X-1700000Y3100000D01*
X3050000Y0D02*
X1833700Y1216300D01*
X-1700000Y3100000D02*
X-1700000Y4700000D01*
X-1250000Y1800000D02*
X-1250000Y2650000D01*
X1150000Y4550000D02*
X1150000Y2800000D01*
X1250000Y1800000D02*
X1250000Y2700000D01*
X275000Y4725000D02*
X300000Y4700000D01*
X1250000Y2700000D02*
X1150000Y2800000D01*
X1000000Y4700000D02*
X1150000Y4550000D01*
X300000Y4700000D02*
X1000000Y4700000D01*
X275000Y5212500D02*
X275000Y4725000D01*
X-275000Y5212500D02*
X-275000Y4722600D01*
X331300Y4116300D02*
X500000Y4116300D01*
X-275000Y4722600D02*
X331300Y4116300D01*
X1250000Y-3150000D02*
X1250000Y-1800000D01*
X1200000Y-3200000D02*
X1250000Y-3150000D01*
G04 #@! TA.AperFunction,Conductor*
G36*
X4546240Y13471498D02*
G01*
X4592733Y13417842D01*
X4602837Y13347568D01*
X4597540Y13327218D01*
X4597639Y13327191D01*
X4549733Y13148403D01*
X4547786Y13137069D01*
X4542193Y13066010D01*
X4542000Y13061085D01*
X4542000Y12172115D01*
X4546475Y12156876D01*
X4547865Y12155671D01*
X4555548Y12154000D01*
X5978000Y12154000D01*
X6046121Y12133998D01*
X6092614Y12080342D01*
X6104000Y12028000D01*
X6104000Y9910115D01*
X6108475Y9894876D01*
X6109865Y9893671D01*
X6117548Y9892000D01*
X6311085Y9892000D01*
X6316013Y9892193D01*
X6355615Y9895310D01*
X6425095Y9880714D01*
X6475654Y9830871D01*
X6491500Y9769698D01*
X6491500Y-5481940D01*
X6471498Y-5550061D01*
X6417842Y-5596554D01*
X6347568Y-5606658D01*
X6282988Y-5577164D01*
X6251305Y-5535190D01*
X6175946Y-5373583D01*
X6170466Y-5364093D01*
X6141589Y-5322851D01*
X6131113Y-5314477D01*
X6117666Y-5321545D01*
X5452021Y-5987189D01*
X5444408Y-6001132D01*
X5444539Y-6002966D01*
X5448790Y-6009580D01*
X6118391Y-6679180D01*
X6130161Y-6685607D01*
X6142176Y-6676311D01*
X6170466Y-6635907D01*
X6175946Y-6626417D01*
X6251305Y-6464810D01*
X6298223Y-6411525D01*
X6366500Y-6392064D01*
X6434460Y-6412606D01*
X6480525Y-6466629D01*
X6491500Y-6518060D01*
X6491500Y-12950633D01*
X6490000Y-12970018D01*
X6489269Y-12974716D01*
X6486309Y-12993724D01*
X6487473Y-13002626D01*
X6487489Y-13002750D01*
X6487760Y-13033193D01*
X6480766Y-13095264D01*
X6474487Y-13122771D01*
X6447515Y-13199853D01*
X6435273Y-13225274D01*
X6391822Y-13294426D01*
X6374230Y-13316485D01*
X6316485Y-13374230D01*
X6294426Y-13391822D01*
X6225274Y-13435273D01*
X6199853Y-13447515D01*
X6122772Y-13474487D01*
X6095264Y-13480766D01*
X6039774Y-13487018D01*
X6024132Y-13486923D01*
X6024121Y-13487800D01*
X6015149Y-13487690D01*
X6006276Y-13486309D01*
X5997374Y-13487473D01*
X5997372Y-13487473D01*
X5986385Y-13488910D01*
X5974714Y-13490436D01*
X5958379Y-13491500D01*
X4630944Y-13491500D01*
X4562823Y-13471498D01*
X4516330Y-13417842D01*
X4506226Y-13347568D01*
X4530118Y-13289935D01*
X4594786Y-13203649D01*
X4603324Y-13188054D01*
X4648478Y-13067606D01*
X4652105Y-13052351D01*
X4657631Y-13001486D01*
X4658000Y-12994672D01*
X4658000Y-12272115D01*
X4653525Y-12256876D01*
X4652135Y-12255671D01*
X4644452Y-12254000D01*
X1860116Y-12254000D01*
X1844877Y-12258475D01*
X1843672Y-12259865D01*
X1842001Y-12267548D01*
X1842001Y-12994669D01*
X1842371Y-13001490D01*
X1847895Y-13052352D01*
X1851521Y-13067604D01*
X1896676Y-13188054D01*
X1905214Y-13203649D01*
X1969882Y-13289935D01*
X1994730Y-13356442D01*
X1979677Y-13425824D01*
X1929503Y-13476054D01*
X1869056Y-13491500D01*
X-1869056Y-13491500D01*
X-1937177Y-13471498D01*
X-1983670Y-13417842D01*
X-1993774Y-13347568D01*
X-1969882Y-13289935D01*
X-1905214Y-13203649D01*
X-1896676Y-13188054D01*
X-1851522Y-13067606D01*
X-1847895Y-13052351D01*
X-1842369Y-13001486D01*
X-1842000Y-12994672D01*
X-1842000Y-12272115D01*
X-1846475Y-12256876D01*
X-1847865Y-12255671D01*
X-1855548Y-12254000D01*
X-4639884Y-12254000D01*
X-4655123Y-12258475D01*
X-4656328Y-12259865D01*
X-4657999Y-12267548D01*
X-4657999Y-12994669D01*
X-4657629Y-13001490D01*
X-4652105Y-13052352D01*
X-4648479Y-13067604D01*
X-4603324Y-13188054D01*
X-4594786Y-13203649D01*
X-4530118Y-13289935D01*
X-4505270Y-13356442D01*
X-4520323Y-13425824D01*
X-4570497Y-13476054D01*
X-4630944Y-13491500D01*
X-5950634Y-13491500D01*
X-5970019Y-13490000D01*
X-5984852Y-13487690D01*
X-5984856Y-13487690D01*
X-5993725Y-13486309D01*
X-6002627Y-13487473D01*
X-6002632Y-13487473D01*
X-6002751Y-13487489D01*
X-6033188Y-13487760D01*
X-6095263Y-13480766D01*
X-6122768Y-13474488D01*
X-6199859Y-13447513D01*
X-6225275Y-13435273D01*
X-6294427Y-13391822D01*
X-6316486Y-13374230D01*
X-6374230Y-13316486D01*
X-6391822Y-13294427D01*
X-6391823Y-13294426D01*
X-6435274Y-13225273D01*
X-6447513Y-13199859D01*
X-6474488Y-13122768D01*
X-6480766Y-13095264D01*
X-6487018Y-13039776D01*
X-6486923Y-13024133D01*
X-6487800Y-13024122D01*
X-6487690Y-13015150D01*
X-6486309Y-13006277D01*
X-6489110Y-12984852D01*
X-6490436Y-12974716D01*
X-6491500Y-12958379D01*
X-6491500Y-11727885D01*
X-4658000Y-11727885D01*
X-4653525Y-11743124D01*
X-4652135Y-11744329D01*
X-4644452Y-11746000D01*
X-3522115Y-11746000D01*
X-3506876Y-11741525D01*
X-3505671Y-11740135D01*
X-3504000Y-11732452D01*
X-3504000Y-10628000D01*
X-3483998Y-10559879D01*
X-3430342Y-10513386D01*
X-3378000Y-10502000D01*
X-3372115Y-10502000D01*
X-3356876Y-10497525D01*
X-3355671Y-10496135D01*
X-3354000Y-10488452D01*
X-3354000Y-9722115D01*
X-3358475Y-9706876D01*
X-3359865Y-9705671D01*
X-3367548Y-9704000D01*
X-4639884Y-9704000D01*
X-4655123Y-9708475D01*
X-4656328Y-9709865D01*
X-4657999Y-9717548D01*
X-4657999Y-10294669D01*
X-4657629Y-10301490D01*
X-4652105Y-10352352D01*
X-4648479Y-10367604D01*
X-4603324Y-10488054D01*
X-4594789Y-10503644D01*
X-4541734Y-10574435D01*
X-4516887Y-10640942D01*
X-4531940Y-10710324D01*
X-4541734Y-10725565D01*
X-4594789Y-10796356D01*
X-4603324Y-10811946D01*
X-4648478Y-10932394D01*
X-4652105Y-10947649D01*
X-4657631Y-10998514D01*
X-4658000Y-11005328D01*
X-4658000Y-11727885D01*
X-6491500Y-11727885D01*
X-6491500Y-6519241D01*
X-6471498Y-6451120D01*
X-6417842Y-6404627D01*
X-6347568Y-6394523D01*
X-6282988Y-6424017D01*
X-6251306Y-6465990D01*
X-6236081Y-6498640D01*
X-6176382Y-6626666D01*
X-6176379Y-6626671D01*
X-6174056Y-6631653D01*
X-6170900Y-6636160D01*
X-6170899Y-6636162D01*
X-6142199Y-6677149D01*
X-6047749Y-6812038D01*
X-5892038Y-6967749D01*
X-5711654Y-7094056D01*
X-5512076Y-7187120D01*
X-5299371Y-7244115D01*
X-5080000Y-7263307D01*
X-4860629Y-7244115D01*
X-4803183Y-7228722D01*
X-4732208Y-7230412D01*
X-4681477Y-7261334D01*
X-4015906Y-7926906D01*
X-3981881Y-7989218D01*
X-3986946Y-8060034D01*
X-4029493Y-8116869D01*
X-4096013Y-8141680D01*
X-4105002Y-8142001D01*
X-4194669Y-8142001D01*
X-4201490Y-8142371D01*
X-4252352Y-8147895D01*
X-4267604Y-8151521D01*
X-4388054Y-8196676D01*
X-4403649Y-8205214D01*
X-4505724Y-8281715D01*
X-4518285Y-8294276D01*
X-4594786Y-8396351D01*
X-4603324Y-8411946D01*
X-4648478Y-8532394D01*
X-4652105Y-8547649D01*
X-4657631Y-8598514D01*
X-4658000Y-8605328D01*
X-4658000Y-9177885D01*
X-4653525Y-9193124D01*
X-4652135Y-9194329D01*
X-4644452Y-9196000D01*
X-2972000Y-9196000D01*
X-2903879Y-9216002D01*
X-2857386Y-9269658D01*
X-2846000Y-9322000D01*
X-2846000Y-10672000D01*
X-2866002Y-10740121D01*
X-2919658Y-10786614D01*
X-2972000Y-10798000D01*
X-2977885Y-10798000D01*
X-2993124Y-10802475D01*
X-2994329Y-10803865D01*
X-2996000Y-10811548D01*
X-2996000Y-11727885D01*
X-2991525Y-11743124D01*
X-2990135Y-11744329D01*
X-2982452Y-11746000D01*
X-1860116Y-11746000D01*
X-1844877Y-11741525D01*
X-1843672Y-11740135D01*
X-1842001Y-11732452D01*
X-1842001Y-11005331D01*
X-1842371Y-10998510D01*
X-1847895Y-10947648D01*
X-1851521Y-10932397D01*
X-1877709Y-10862541D01*
X-1882892Y-10791734D01*
X-1848972Y-10729365D01*
X-1818633Y-10709799D01*
X-1819818Y-10707634D01*
X-1796351Y-10694786D01*
X-1703468Y-10625174D01*
X-1636961Y-10600326D01*
X-1627903Y-10600000D01*
X1627903Y-10600000D01*
X1696024Y-10620002D01*
X1703468Y-10625174D01*
X1796351Y-10694786D01*
X1819818Y-10707634D01*
X1818028Y-10710903D01*
X1860709Y-10742954D01*
X1885419Y-10809512D01*
X1877709Y-10862541D01*
X1851522Y-10932395D01*
X1847895Y-10947649D01*
X1842369Y-10998514D01*
X1842000Y-11005328D01*
X1842000Y-11727885D01*
X1846475Y-11743124D01*
X1847865Y-11744329D01*
X1855548Y-11746000D01*
X2977885Y-11746000D01*
X2993124Y-11741525D01*
X2994329Y-11740135D01*
X2996000Y-11732452D01*
X2996000Y-10816115D01*
X2991525Y-10800876D01*
X2990135Y-10799671D01*
X2982452Y-10798000D01*
X2972000Y-10798000D01*
X2903879Y-10777998D01*
X2857386Y-10724342D01*
X2846000Y-10672000D01*
X2846000Y-10483885D01*
X3354000Y-10483885D01*
X3358475Y-10499124D01*
X3359865Y-10500329D01*
X3367548Y-10502000D01*
X3378000Y-10502000D01*
X3446121Y-10522002D01*
X3492614Y-10575658D01*
X3504000Y-10628000D01*
X3504000Y-11727885D01*
X3508475Y-11743124D01*
X3509865Y-11744329D01*
X3517548Y-11746000D01*
X4639884Y-11746000D01*
X4655123Y-11741525D01*
X4656328Y-11740135D01*
X4657999Y-11732452D01*
X4657999Y-11005331D01*
X4657629Y-10998510D01*
X4652105Y-10947648D01*
X4648479Y-10932396D01*
X4603324Y-10811946D01*
X4594789Y-10796356D01*
X4541734Y-10725565D01*
X4516887Y-10659058D01*
X4531940Y-10589676D01*
X4541734Y-10574435D01*
X4594789Y-10503644D01*
X4603324Y-10488054D01*
X4648478Y-10367606D01*
X4652105Y-10352351D01*
X4657631Y-10301486D01*
X4658000Y-10294672D01*
X4658000Y-9722115D01*
X4653525Y-9706876D01*
X4652135Y-9705671D01*
X4644452Y-9704000D01*
X3372115Y-9704000D01*
X3356876Y-9708475D01*
X3355671Y-9709865D01*
X3354000Y-9717548D01*
X3354000Y-10483885D01*
X2846000Y-10483885D01*
X2846000Y-9177885D01*
X3354000Y-9177885D01*
X3358475Y-9193124D01*
X3359865Y-9194329D01*
X3367548Y-9196000D01*
X4639884Y-9196000D01*
X4655123Y-9191525D01*
X4656328Y-9190135D01*
X4657999Y-9182452D01*
X4657999Y-8605331D01*
X4657629Y-8598510D01*
X4652105Y-8547648D01*
X4648479Y-8532396D01*
X4603324Y-8411946D01*
X4594786Y-8396351D01*
X4518285Y-8294276D01*
X4505724Y-8281715D01*
X4403649Y-8205214D01*
X4388054Y-8196676D01*
X4267606Y-8151522D01*
X4252351Y-8147895D01*
X4201486Y-8142369D01*
X4194672Y-8142000D01*
X3372115Y-8142000D01*
X3356876Y-8146475D01*
X3355671Y-8147865D01*
X3354000Y-8155548D01*
X3354000Y-9177885D01*
X2846000Y-9177885D01*
X2846000Y-8160116D01*
X2841525Y-8144877D01*
X2840135Y-8143672D01*
X2832452Y-8142001D01*
X2039407Y-8142001D01*
X1971286Y-8121999D01*
X1924793Y-8068343D01*
X1921425Y-8060230D01*
X1903325Y-8011948D01*
X1894786Y-7996351D01*
X1818285Y-7894276D01*
X1805723Y-7881714D01*
X1759323Y-7846939D01*
X1716808Y-7790079D01*
X1711782Y-7719261D01*
X1745793Y-7657018D01*
X2141478Y-7261333D01*
X2203790Y-7227307D01*
X2263182Y-7228722D01*
X2306644Y-7240368D01*
X2315314Y-7242691D01*
X2315316Y-7242691D01*
X2320629Y-7244115D01*
X2540000Y-7263307D01*
X2759371Y-7244115D01*
X2972076Y-7187120D01*
X3171654Y-7094056D01*
X3234342Y-7050161D01*
X4394393Y-7050161D01*
X4403687Y-7062175D01*
X4444088Y-7090464D01*
X4453584Y-7095947D01*
X4643113Y-7184326D01*
X4653405Y-7188072D01*
X4855401Y-7242196D01*
X4866196Y-7244099D01*
X5074525Y-7262326D01*
X5085475Y-7262326D01*
X5293804Y-7244099D01*
X5304599Y-7242196D01*
X5506595Y-7188072D01*
X5516887Y-7184326D01*
X5706416Y-7095947D01*
X5715912Y-7090464D01*
X5757148Y-7061590D01*
X5765523Y-7051112D01*
X5758457Y-7037668D01*
X5092811Y-6372021D01*
X5078868Y-6364408D01*
X5077034Y-6364539D01*
X5070420Y-6368790D01*
X4400820Y-7038391D01*
X4394393Y-7050161D01*
X3234342Y-7050161D01*
X3352038Y-6967749D01*
X3507749Y-6812038D01*
X3602200Y-6677149D01*
X3630899Y-6636162D01*
X3630900Y-6636160D01*
X3634056Y-6631653D01*
X3636379Y-6626671D01*
X3636382Y-6626666D01*
X3696081Y-6498640D01*
X3742998Y-6445355D01*
X3811276Y-6425894D01*
X3879236Y-6446436D01*
X3924471Y-6498640D01*
X3984054Y-6626417D01*
X3989534Y-6635907D01*
X4018411Y-6677149D01*
X4028887Y-6685523D01*
X4042334Y-6678455D01*
X4707979Y-6012811D01*
X4715592Y-5998868D01*
X4715461Y-5997034D01*
X4711210Y-5990420D01*
X4041609Y-5320820D01*
X4029839Y-5314393D01*
X4017824Y-5323689D01*
X3989534Y-5364093D01*
X3984054Y-5373583D01*
X3924471Y-5501360D01*
X3877554Y-5554645D01*
X3809276Y-5574106D01*
X3741316Y-5553564D01*
X3696081Y-5501360D01*
X3636382Y-5373334D01*
X3636379Y-5373329D01*
X3634056Y-5368347D01*
X3602786Y-5323689D01*
X3510908Y-5192473D01*
X3510906Y-5192470D01*
X3507749Y-5187962D01*
X3352038Y-5032251D01*
X3232983Y-4948887D01*
X4394477Y-4948887D01*
X4401545Y-4962334D01*
X5067189Y-5627979D01*
X5081132Y-5635592D01*
X5082966Y-5635461D01*
X5089580Y-5631210D01*
X5759180Y-4961609D01*
X5765607Y-4949839D01*
X5756313Y-4937825D01*
X5715912Y-4909536D01*
X5706416Y-4904053D01*
X5516887Y-4815674D01*
X5506595Y-4811928D01*
X5304599Y-4757804D01*
X5293804Y-4755901D01*
X5085475Y-4737674D01*
X5074525Y-4737674D01*
X4866196Y-4755901D01*
X4855401Y-4757804D01*
X4653405Y-4811928D01*
X4643113Y-4815674D01*
X4453583Y-4904054D01*
X4444093Y-4909534D01*
X4402851Y-4938411D01*
X4394477Y-4948887D01*
X3232983Y-4948887D01*
X3171654Y-4905944D01*
X2972076Y-4812880D01*
X2759371Y-4755885D01*
X2540000Y-4736693D01*
X2320629Y-4755885D01*
X2107924Y-4812880D01*
X2014562Y-4856415D01*
X1913334Y-4903618D01*
X1913329Y-4903621D01*
X1908347Y-4905944D01*
X1903840Y-4909100D01*
X1903838Y-4909101D01*
X1732473Y-5029092D01*
X1732470Y-5029094D01*
X1727962Y-5032251D01*
X1572251Y-5187962D01*
X1569094Y-5192470D01*
X1569092Y-5192473D01*
X1477214Y-5323689D01*
X1445944Y-5368347D01*
X1443621Y-5373329D01*
X1443618Y-5373334D01*
X1384195Y-5500769D01*
X1337278Y-5554054D01*
X1269001Y-5573515D01*
X1201041Y-5552973D01*
X1155805Y-5500769D01*
X1096382Y-5373334D01*
X1096379Y-5373329D01*
X1094056Y-5368347D01*
X1062786Y-5323689D01*
X970908Y-5192473D01*
X970906Y-5192470D01*
X967749Y-5187962D01*
X812038Y-5032251D01*
X631654Y-4905944D01*
X432076Y-4812880D01*
X219371Y-4755885D01*
X0Y-4736693D01*
X-148065Y-4749647D01*
X-217669Y-4735658D01*
X-268662Y-4686258D01*
X-284852Y-4617132D01*
X-261100Y-4550227D01*
X-248141Y-4535031D01*
X478559Y-3808331D01*
X540871Y-3774305D01*
X611686Y-3779370D01*
X658290Y-3809899D01*
X678303Y-3830623D01*
X684195Y-3834478D01*
X684199Y-3834482D01*
X825085Y-3926675D01*
X830981Y-3930533D01*
X837585Y-3932989D01*
X837587Y-3932990D01*
X890110Y-3952523D01*
X1002000Y-3994135D01*
X1182860Y-4018267D01*
X1189871Y-4017629D01*
X1189875Y-4017629D01*
X1329580Y-4004914D01*
X1364571Y-4001729D01*
X1371273Y-3999551D01*
X1371275Y-3999551D01*
X1531405Y-3947522D01*
X1531408Y-3947521D01*
X1538104Y-3945345D01*
X1562952Y-3930533D01*
X1688777Y-3855527D01*
X1688780Y-3855525D01*
X1694832Y-3851917D01*
X1776332Y-3774305D01*
X1821862Y-3730948D01*
X1821864Y-3730945D01*
X1826966Y-3726087D01*
X1927939Y-3574110D01*
X1942938Y-3534625D01*
X1990233Y-3410122D01*
X1990234Y-3410117D01*
X1992733Y-3403539D01*
X1993713Y-3396567D01*
X2017576Y-3226775D01*
X2017576Y-3226770D01*
X2018127Y-3222852D01*
X2018446Y-3200000D01*
X1998107Y-3018675D01*
X1938101Y-2846361D01*
X1853846Y-2711524D01*
X1834700Y-2644754D01*
X1834700Y-2626000D01*
X1854702Y-2557879D01*
X1908358Y-2511386D01*
X1960700Y-2500000D01*
X2652296Y-2500000D01*
X2669917Y-2501746D01*
X2669938Y-2501753D01*
X2743365Y-2508500D01*
X2746263Y-2508500D01*
X3050795Y-2508499D01*
X3356634Y-2508499D01*
X3359492Y-2508236D01*
X3359501Y-2508236D01*
X3395004Y-2504974D01*
X3430062Y-2501753D01*
X3438030Y-2499256D01*
X3586450Y-2452744D01*
X3586452Y-2452743D01*
X3593699Y-2450472D01*
X3740381Y-2361639D01*
X3811259Y-2290761D01*
X3873571Y-2256735D01*
X3944386Y-2261800D01*
X3989449Y-2290761D01*
X4054557Y-2355869D01*
X4066426Y-2365176D01*
X4200012Y-2446079D01*
X4213757Y-2452285D01*
X4363644Y-2499256D01*
X4376694Y-2501869D01*
X4440521Y-2507734D01*
X4446309Y-2508000D01*
X4477885Y-2508000D01*
X4493124Y-2503525D01*
X4494329Y-2502135D01*
X4496000Y-2494452D01*
X4496000Y-2489884D01*
X5004000Y-2489884D01*
X5008475Y-2505123D01*
X5009865Y-2506328D01*
X5017548Y-2507999D01*
X5053705Y-2507999D01*
X5059454Y-2507736D01*
X5123315Y-2501868D01*
X5136351Y-2499257D01*
X5286243Y-2452285D01*
X5299988Y-2446079D01*
X5433574Y-2365176D01*
X5445443Y-2355869D01*
X5555869Y-2245443D01*
X5565176Y-2233574D01*
X5646079Y-2099988D01*
X5652285Y-2086243D01*
X5699256Y-1936356D01*
X5701869Y-1923306D01*
X5706913Y-1868414D01*
X5703525Y-1856876D01*
X5702135Y-1855671D01*
X5694452Y-1854000D01*
X5022115Y-1854000D01*
X5006876Y-1858475D01*
X5005671Y-1859865D01*
X5004000Y-1867548D01*
X5004000Y-2489884D01*
X4496000Y-2489884D01*
X4496000Y-1472000D01*
X4516002Y-1403879D01*
X4569658Y-1357386D01*
X4622000Y-1346000D01*
X5689884Y-1346000D01*
X5705123Y-1341525D01*
X5706328Y-1340135D01*
X5707291Y-1335706D01*
X5701868Y-1276685D01*
X5699257Y-1263649D01*
X5652285Y-1113757D01*
X5646079Y-1100012D01*
X5565176Y-966426D01*
X5555869Y-954557D01*
X5490761Y-889449D01*
X5456735Y-827137D01*
X5461800Y-756322D01*
X5490761Y-711259D01*
X5561639Y-640381D01*
X5650472Y-493699D01*
X5701753Y-330062D01*
X5708500Y-256635D01*
X5708499Y256634D01*
X5701753Y330062D01*
X5650472Y493699D01*
X5561639Y640381D01*
X5490761Y711259D01*
X5456735Y773571D01*
X5461800Y844386D01*
X5490761Y889449D01*
X5555869Y954557D01*
X5565176Y966426D01*
X5646079Y1100012D01*
X5652285Y1113757D01*
X5699256Y1263644D01*
X5701869Y1276694D01*
X5706913Y1331586D01*
X5703525Y1343124D01*
X5702135Y1344329D01*
X5694452Y1346000D01*
X4622000Y1346000D01*
X4553879Y1366002D01*
X4507386Y1419658D01*
X4496000Y1472000D01*
X4496000Y1728000D01*
X4516002Y1796121D01*
X4569658Y1842614D01*
X4622000Y1854000D01*
X5689884Y1854000D01*
X5705123Y1858475D01*
X5706328Y1859865D01*
X5707291Y1864294D01*
X5701868Y1923315D01*
X5699257Y1936351D01*
X5652285Y2086243D01*
X5646079Y2099988D01*
X5565176Y2233574D01*
X5555869Y2245443D01*
X5490761Y2310551D01*
X5456735Y2372863D01*
X5461800Y2443678D01*
X5490761Y2488741D01*
X5561639Y2559619D01*
X5650472Y2706301D01*
X5654714Y2719835D01*
X5699752Y2863554D01*
X5701753Y2869938D01*
X5708500Y2943365D01*
X5708499Y3456634D01*
X5708234Y3459526D01*
X5702364Y3523408D01*
X5701753Y3530062D01*
X5650472Y3693699D01*
X5561639Y3840381D01*
X5490761Y3911259D01*
X5456735Y3973571D01*
X5461800Y4044386D01*
X5490761Y4089449D01*
X5555869Y4154557D01*
X5565176Y4166426D01*
X5646079Y4300012D01*
X5652285Y4313757D01*
X5699256Y4463644D01*
X5701869Y4476694D01*
X5706913Y4531586D01*
X5703525Y4543124D01*
X5702135Y4544329D01*
X5694452Y4546000D01*
X4622000Y4546000D01*
X4553879Y4566002D01*
X4507386Y4619658D01*
X4496000Y4672000D01*
X4496000Y5072115D01*
X5004000Y5072115D01*
X5008475Y5056876D01*
X5009865Y5055671D01*
X5017548Y5054000D01*
X5689884Y5054000D01*
X5705123Y5058475D01*
X5706328Y5059865D01*
X5707291Y5064294D01*
X5701868Y5123315D01*
X5699257Y5136351D01*
X5652285Y5286243D01*
X5646079Y5299988D01*
X5565176Y5433574D01*
X5555869Y5445443D01*
X5445443Y5555869D01*
X5433574Y5565176D01*
X5299988Y5646079D01*
X5286243Y5652285D01*
X5136356Y5699256D01*
X5123306Y5701869D01*
X5059479Y5707734D01*
X5053691Y5708000D01*
X5022115Y5708000D01*
X5006876Y5703525D01*
X5005671Y5702135D01*
X5004000Y5694452D01*
X5004000Y5072115D01*
X4496000Y5072115D01*
X4496000Y5689884D01*
X4491525Y5705123D01*
X4490135Y5706328D01*
X4482452Y5707999D01*
X4446295Y5707999D01*
X4440546Y5707736D01*
X4376685Y5701868D01*
X4363649Y5699257D01*
X4213757Y5652285D01*
X4200012Y5646079D01*
X4066426Y5565176D01*
X4054557Y5555869D01*
X3989449Y5490761D01*
X3927137Y5456735D01*
X3856322Y5461800D01*
X3811259Y5490761D01*
X3740381Y5561639D01*
X3593699Y5650472D01*
X3586452Y5652743D01*
X3586450Y5652744D01*
X3513870Y5675489D01*
X3430062Y5701753D01*
X3356635Y5708500D01*
X3353737Y5708500D01*
X3049205Y5708499D01*
X2743366Y5708499D01*
X2740508Y5708236D01*
X2740499Y5708236D01*
X2706619Y5705123D01*
X2669938Y5701753D01*
X2663560Y5699754D01*
X2663559Y5699754D01*
X2513550Y5652744D01*
X2513548Y5652743D01*
X2506301Y5650472D01*
X2359619Y5561639D01*
X2337105Y5539125D01*
X2274793Y5505099D01*
X2203978Y5510164D01*
X2180498Y5521834D01*
X2164740Y5531834D01*
X2164737Y5531835D01*
X2158783Y5535614D01*
X2052090Y5573606D01*
X1993527Y5594460D01*
X1993525Y5594461D01*
X1986893Y5596822D01*
X1979907Y5597655D01*
X1979903Y5597656D01*
X1850326Y5613106D01*
X1805714Y5618426D01*
X1798711Y5617690D01*
X1798710Y5617690D01*
X1624582Y5599389D01*
X1554744Y5612161D01*
X1502897Y5660663D01*
X1485503Y5729496D01*
X1493431Y5768931D01*
X1498478Y5782393D01*
X1502105Y5797649D01*
X1507631Y5848514D01*
X1508000Y5855327D01*
X1507999Y6144668D01*
X1507629Y6151490D01*
X1502105Y6202352D01*
X1498479Y6217604D01*
X1453324Y6338054D01*
X1444786Y6353649D01*
X1368285Y6455724D01*
X1355724Y6468285D01*
X1253649Y6544786D01*
X1238054Y6553324D01*
X1117606Y6598478D01*
X1102351Y6602105D01*
X1051486Y6607631D01*
X1044672Y6608000D01*
X1009500Y6608000D01*
X941379Y6628002D01*
X894886Y6681658D01*
X883500Y6734000D01*
X883500Y7173134D01*
X883131Y7176533D01*
X877559Y7227826D01*
X890087Y7297708D01*
X915928Y7332677D01*
X930562Y7346613D01*
X930564Y7346616D01*
X935666Y7351474D01*
X1036639Y7503451D01*
X1051638Y7542936D01*
X1098933Y7667439D01*
X1098934Y7667444D01*
X1101433Y7674022D01*
X1126827Y7854709D01*
X1127146Y7877561D01*
X1106807Y8058886D01*
X1100861Y8075961D01*
X1097346Y8146868D01*
X1132725Y8208421D01*
X1195767Y8241076D01*
X1208867Y8242919D01*
X1215974Y8243541D01*
X1215983Y8243543D01*
X1221463Y8244022D01*
X1365051Y8282497D01*
X1430886Y8300137D01*
X1430888Y8300138D01*
X1436196Y8301560D01*
X1442190Y8304355D01*
X1632690Y8393186D01*
X1632695Y8393189D01*
X1637677Y8395512D01*
X1702959Y8441223D01*
X2805777Y8441223D01*
X2815074Y8429207D01*
X2858069Y8399102D01*
X2867555Y8393624D01*
X3058993Y8304355D01*
X3069285Y8300609D01*
X3273309Y8245941D01*
X3284104Y8244038D01*
X3494525Y8225628D01*
X3505475Y8225628D01*
X3715896Y8244038D01*
X3726691Y8245941D01*
X3930715Y8300609D01*
X3941007Y8304355D01*
X4132445Y8393624D01*
X4141931Y8399102D01*
X4185764Y8429793D01*
X4194139Y8440271D01*
X4187071Y8453719D01*
X3512812Y9127978D01*
X3498868Y9135592D01*
X3497035Y9135461D01*
X3490420Y9131210D01*
X2812207Y8452997D01*
X2805777Y8441223D01*
X1702959Y8441223D01*
X1765429Y8484965D01*
X1815270Y8519864D01*
X1815273Y8519866D01*
X1819781Y8523023D01*
X1976977Y8680219D01*
X2064894Y8805777D01*
X2101331Y8857815D01*
X2101332Y8857817D01*
X2104488Y8862324D01*
X2106811Y8867306D01*
X2106814Y8867311D01*
X2136081Y8930075D01*
X2182999Y8983360D01*
X2251276Y9002821D01*
X2319236Y8982279D01*
X2364471Y8930075D01*
X2393623Y8867559D01*
X2399103Y8858068D01*
X2429794Y8814235D01*
X2440271Y8805860D01*
X2453718Y8812928D01*
X3127978Y9487188D01*
X3134356Y9498868D01*
X3864408Y9498868D01*
X3864539Y9497035D01*
X3868790Y9490420D01*
X4547003Y8812207D01*
X4558777Y8805777D01*
X4570793Y8815074D01*
X4600897Y8858068D01*
X4606377Y8867559D01*
X4695645Y9058993D01*
X4699391Y9069285D01*
X4754059Y9273309D01*
X4755962Y9284104D01*
X4774372Y9494525D01*
X4774372Y9505475D01*
X4755962Y9715896D01*
X4754059Y9726691D01*
X4699390Y9930719D01*
X4695452Y9941538D01*
X4690949Y10012392D01*
X4725468Y10074432D01*
X4788048Y10107961D01*
X4858821Y10102334D01*
X4893147Y10082552D01*
X4947610Y10038448D01*
X4958625Y10031295D01*
X5116930Y9950635D01*
X5129183Y9945931D01*
X5301597Y9899733D01*
X5312931Y9897786D01*
X5383990Y9892193D01*
X5388915Y9892000D01*
X5577885Y9892000D01*
X5593124Y9896475D01*
X5594329Y9897865D01*
X5596000Y9905548D01*
X5596000Y11627885D01*
X5591525Y11643124D01*
X5590135Y11644329D01*
X5582452Y11646000D01*
X4560115Y11646000D01*
X4544876Y11641525D01*
X4543671Y11640135D01*
X4542000Y11632452D01*
X4542000Y10738916D01*
X4542193Y10733990D01*
X4547786Y10662931D01*
X4549733Y10651597D01*
X4595931Y10479183D01*
X4600635Y10466930D01*
X4645144Y10379575D01*
X4658248Y10309798D01*
X4631548Y10244013D01*
X4591502Y10210841D01*
X4546281Y10187071D01*
X3872022Y9512812D01*
X3864408Y9498868D01*
X3134356Y9498868D01*
X3135592Y9501132D01*
X3135461Y9502965D01*
X3131210Y9509580D01*
X2452997Y10187793D01*
X2441223Y10194223D01*
X2429207Y10184926D01*
X2399103Y10141932D01*
X2393623Y10132441D01*
X2364471Y10069925D01*
X2317553Y10016640D01*
X2249276Y9997179D01*
X2181316Y10017721D01*
X2136081Y10069925D01*
X2106814Y10132689D01*
X2106811Y10132694D01*
X2104488Y10137676D01*
X2101331Y10142185D01*
X1980136Y10315270D01*
X1980134Y10315273D01*
X1976977Y10319781D01*
X1819781Y10476977D01*
X1815273Y10480134D01*
X1815270Y10480136D01*
X1739505Y10533187D01*
X1701599Y10559729D01*
X2805860Y10559729D01*
X2812928Y10546282D01*
X3487188Y9872022D01*
X3501132Y9864408D01*
X3502965Y9864539D01*
X3509580Y9868790D01*
X4187793Y10547003D01*
X4194223Y10558777D01*
X4184926Y10570793D01*
X4141931Y10600898D01*
X4132445Y10606376D01*
X3941007Y10695645D01*
X3930715Y10699391D01*
X3726691Y10754059D01*
X3715896Y10755962D01*
X3505475Y10774372D01*
X3494525Y10774372D01*
X3284104Y10755962D01*
X3273309Y10754059D01*
X3069285Y10699391D01*
X3058993Y10695645D01*
X2867559Y10606377D01*
X2858068Y10600897D01*
X2814235Y10570206D01*
X2805860Y10559729D01*
X1701599Y10559729D01*
X1637677Y10604488D01*
X1632695Y10606811D01*
X1632690Y10606814D01*
X1441178Y10696117D01*
X1441177Y10696118D01*
X1436196Y10698440D01*
X1430888Y10699862D01*
X1430886Y10699863D01*
X1365051Y10717503D01*
X1221463Y10755978D01*
X1000000Y10775353D01*
X778537Y10755978D01*
X634949Y10717503D01*
X569114Y10699863D01*
X569112Y10699862D01*
X563804Y10698440D01*
X558823Y10696118D01*
X558822Y10696117D01*
X367311Y10606814D01*
X367306Y10606811D01*
X362324Y10604488D01*
X357817Y10601332D01*
X357815Y10601331D01*
X184730Y10480136D01*
X184727Y10480134D01*
X180219Y10476977D01*
X89095Y10385853D01*
X26783Y10351827D01*
X-44032Y10356892D01*
X-89095Y10385853D01*
X-180219Y10476977D01*
X-184727Y10480134D01*
X-184730Y10480136D01*
X-260495Y10533187D01*
X-362323Y10604488D01*
X-367305Y10606811D01*
X-367310Y10606814D01*
X-558822Y10696117D01*
X-558823Y10696118D01*
X-563804Y10698440D01*
X-569112Y10699862D01*
X-569114Y10699863D01*
X-634949Y10717503D01*
X-778537Y10755978D01*
X-1000000Y10775353D01*
X-1221463Y10755978D01*
X-1365051Y10717503D01*
X-1430886Y10699863D01*
X-1430888Y10699862D01*
X-1436196Y10698440D01*
X-1441177Y10696118D01*
X-1441178Y10696117D01*
X-1632689Y10606814D01*
X-1632694Y10606811D01*
X-1637676Y10604488D01*
X-1642183Y10601332D01*
X-1642185Y10601331D01*
X-1815270Y10480136D01*
X-1815273Y10480134D01*
X-1819781Y10476977D01*
X-1976977Y10319781D01*
X-1980134Y10315273D01*
X-1980136Y10315270D01*
X-2101331Y10142185D01*
X-2104488Y10137676D01*
X-2106811Y10132694D01*
X-2106814Y10132689D01*
X-2135805Y10070517D01*
X-2182723Y10017232D01*
X-2251000Y9997771D01*
X-2318960Y10018313D01*
X-2364195Y10070517D01*
X-2393186Y10132689D01*
X-2393189Y10132694D01*
X-2395512Y10137676D01*
X-2398669Y10142185D01*
X-2519864Y10315270D01*
X-2519866Y10315273D01*
X-2523023Y10319781D01*
X-2680219Y10476977D01*
X-2684727Y10480134D01*
X-2684730Y10480136D01*
X-2760495Y10533187D01*
X-2862323Y10604488D01*
X-2867305Y10606811D01*
X-2867310Y10606814D01*
X-3058822Y10696117D01*
X-3058823Y10696118D01*
X-3063804Y10698440D01*
X-3069112Y10699862D01*
X-3069114Y10699863D01*
X-3134949Y10717503D01*
X-3278537Y10755978D01*
X-3500000Y10775353D01*
X-3721463Y10755978D01*
X-3865051Y10717503D01*
X-3930886Y10699863D01*
X-3930888Y10699862D01*
X-3936196Y10698440D01*
X-3941177Y10696118D01*
X-3941178Y10696117D01*
X-4132689Y10606814D01*
X-4132694Y10606811D01*
X-4137676Y10604488D01*
X-4142183Y10601332D01*
X-4142185Y10601331D01*
X-4315270Y10480136D01*
X-4315273Y10480134D01*
X-4319781Y10476977D01*
X-4365309Y10431449D01*
X-4427621Y10397423D01*
X-4498436Y10402488D01*
X-4555272Y10445035D01*
X-4580083Y10511555D01*
X-4576111Y10553155D01*
X-4549733Y10651598D01*
X-4547786Y10662931D01*
X-4542193Y10733990D01*
X-4542000Y10738916D01*
X-4542000Y11627885D01*
X-4546475Y11643124D01*
X-4547865Y11644329D01*
X-4555548Y11646000D01*
X-5577885Y11646000D01*
X-5593124Y11641525D01*
X-5594329Y11640135D01*
X-5596000Y11632452D01*
X-5596000Y9910115D01*
X-5591525Y9894876D01*
X-5590135Y9893671D01*
X-5582452Y9892000D01*
X-5388915Y9892000D01*
X-5383990Y9892193D01*
X-5312931Y9897786D01*
X-5301597Y9899733D01*
X-5129183Y9945931D01*
X-5116930Y9950635D01*
X-4958625Y10031295D01*
X-4947610Y10038448D01*
X-4893904Y10081939D01*
X-4828377Y10109265D01*
X-4758479Y10096825D01*
X-4706402Y10048571D01*
X-4688680Y9979822D01*
X-4696190Y9941021D01*
X-4698440Y9936196D01*
X-4755978Y9721463D01*
X-4775353Y9500000D01*
X-4755978Y9278537D01*
X-4698440Y9063804D01*
X-4696118Y9058823D01*
X-4696117Y9058822D01*
X-4606814Y8867311D01*
X-4606811Y8867306D01*
X-4604488Y8862324D01*
X-4601332Y8857817D01*
X-4601331Y8857815D01*
X-4564893Y8805777D01*
X-4476977Y8680219D01*
X-4319781Y8523023D01*
X-4315273Y8519866D01*
X-4315270Y8519864D01*
X-4265429Y8484965D01*
X-4221101Y8429508D01*
X-4211700Y8381752D01*
X-4211700Y6629030D01*
X-4211992Y6620460D01*
X-4213243Y6602105D01*
X-4215945Y6562479D01*
X-4214640Y6555003D01*
X-4214640Y6555000D01*
X-4204904Y6499217D01*
X-4203941Y6492692D01*
X-4196232Y6428989D01*
X-4193546Y6421881D01*
X-4192981Y6419581D01*
X-4188314Y6402520D01*
X-4187634Y6400266D01*
X-4186328Y6392785D01*
X-4162302Y6338054D01*
X-4160525Y6334005D01*
X-4158033Y6327898D01*
X-4155430Y6321011D01*
X-4135343Y6267851D01*
X-4131044Y6261596D01*
X-4129951Y6259505D01*
X-4121345Y6244043D01*
X-4120142Y6242009D01*
X-4117089Y6235054D01*
X-4112466Y6229029D01*
X-4112463Y6229024D01*
X-4078012Y6184126D01*
X-4074136Y6178791D01*
X-4042082Y6132153D01*
X-4042077Y6132147D01*
X-4037775Y6125888D01*
X-4032101Y6120833D01*
X-3991037Y6084246D01*
X-3985760Y6079265D01*
X-3798604Y5892108D01*
X-3764579Y5829796D01*
X-3761700Y5803013D01*
X-3761700Y3992510D01*
X-3781702Y3924389D01*
X-3798605Y3903415D01*
X-3810905Y3891115D01*
X-3873217Y3857089D01*
X-3944032Y3862154D01*
X-3989095Y3891115D01*
X-4059619Y3961639D01*
X-4206301Y4050472D01*
X-4213548Y4052743D01*
X-4213550Y4052744D01*
X-4299440Y4079660D01*
X-4369938Y4101753D01*
X-4443365Y4108500D01*
X-4446263Y4108500D01*
X-4750795Y4108499D01*
X-5056634Y4108499D01*
X-5059492Y4108236D01*
X-5059501Y4108236D01*
X-5095004Y4104974D01*
X-5130062Y4101753D01*
X-5136440Y4099754D01*
X-5136441Y4099754D01*
X-5286450Y4052744D01*
X-5286452Y4052743D01*
X-5293699Y4050472D01*
X-5440381Y3961639D01*
X-5561639Y3840381D01*
X-5650472Y3693699D01*
X-5701753Y3530062D01*
X-5708500Y3456635D01*
X-5708499Y2943366D01*
X-5708236Y2940508D01*
X-5708236Y2940499D01*
X-5704974Y2904996D01*
X-5701753Y2869938D01*
X-5699754Y2863560D01*
X-5699754Y2863559D01*
X-5654713Y2719835D01*
X-5650472Y2706301D01*
X-5561639Y2559619D01*
X-5498605Y2496585D01*
X-5464579Y2434273D01*
X-5461700Y2407490D01*
X-5461700Y2392510D01*
X-5481702Y2324389D01*
X-5498605Y2303415D01*
X-5561639Y2240381D01*
X-5650472Y2093699D01*
X-5701753Y1930062D01*
X-5708500Y1856635D01*
X-5708499Y1343366D01*
X-5701753Y1269938D01*
X-5650472Y1106301D01*
X-5561639Y959619D01*
X-5490761Y888741D01*
X-5456735Y826429D01*
X-5461800Y755614D01*
X-5490761Y710551D01*
X-5555869Y645443D01*
X-5565176Y633574D01*
X-5646079Y499988D01*
X-5652285Y486243D01*
X-5699256Y336356D01*
X-5701869Y323306D01*
X-5706913Y268414D01*
X-5703525Y256876D01*
X-5702135Y255671D01*
X-5694452Y254000D01*
X-4622000Y254000D01*
X-4553879Y233998D01*
X-4507386Y180342D01*
X-4496000Y128000D01*
X-4496000Y-2489884D01*
X-4491525Y-2505123D01*
X-4490135Y-2506328D01*
X-4482452Y-2507999D01*
X-4446295Y-2507999D01*
X-4440546Y-2507736D01*
X-4376685Y-2501868D01*
X-4363649Y-2499257D01*
X-4213757Y-2452285D01*
X-4200012Y-2446079D01*
X-4066426Y-2365176D01*
X-4054557Y-2355869D01*
X-3989449Y-2290761D01*
X-3927137Y-2256735D01*
X-3856322Y-2261800D01*
X-3811259Y-2290761D01*
X-3798605Y-2303415D01*
X-3764579Y-2365727D01*
X-3761700Y-2392510D01*
X-3761700Y-3623014D01*
X-3781702Y-3691135D01*
X-3798605Y-3712109D01*
X-4802302Y-4715806D01*
X-4864614Y-4749832D01*
X-4902378Y-4752232D01*
X-5074525Y-4737172D01*
X-5080000Y-4736693D01*
X-5299371Y-4755885D01*
X-5512076Y-4812880D01*
X-5605438Y-4856415D01*
X-5706666Y-4903618D01*
X-5706671Y-4903621D01*
X-5711653Y-4905944D01*
X-5716160Y-4909100D01*
X-5716162Y-4909101D01*
X-5887527Y-5029092D01*
X-5887530Y-5029094D01*
X-5892038Y-5032251D01*
X-6047749Y-5187962D01*
X-6050906Y-5192470D01*
X-6050908Y-5192473D01*
X-6142786Y-5323689D01*
X-6174056Y-5368347D01*
X-6176379Y-5373329D01*
X-6176382Y-5373334D01*
X-6251305Y-5534009D01*
X-6298222Y-5587294D01*
X-6366499Y-5606755D01*
X-6434459Y-5586213D01*
X-6480525Y-5532191D01*
X-6491500Y-5480759D01*
X-6491500Y-1864294D01*
X-5707291Y-1864294D01*
X-5701868Y-1923315D01*
X-5699257Y-1936351D01*
X-5652285Y-2086243D01*
X-5646079Y-2099988D01*
X-5565176Y-2233574D01*
X-5555869Y-2245443D01*
X-5445443Y-2355869D01*
X-5433574Y-2365176D01*
X-5299988Y-2446079D01*
X-5286243Y-2452285D01*
X-5136356Y-2499256D01*
X-5123306Y-2501869D01*
X-5059479Y-2507734D01*
X-5053691Y-2508000D01*
X-5022115Y-2508000D01*
X-5006876Y-2503525D01*
X-5005671Y-2502135D01*
X-5004000Y-2494452D01*
X-5004000Y-1872115D01*
X-5008475Y-1856876D01*
X-5009865Y-1855671D01*
X-5017548Y-1854000D01*
X-5689884Y-1854000D01*
X-5705123Y-1858475D01*
X-5706328Y-1859865D01*
X-5707291Y-1864294D01*
X-6491500Y-1864294D01*
X-6491500Y-264294D01*
X-5707291Y-264294D01*
X-5701868Y-323315D01*
X-5699257Y-336351D01*
X-5652285Y-486243D01*
X-5646079Y-499988D01*
X-5565176Y-633574D01*
X-5555869Y-645443D01*
X-5490407Y-710905D01*
X-5456381Y-773217D01*
X-5461446Y-844032D01*
X-5490407Y-889095D01*
X-5555869Y-954557D01*
X-5565176Y-966426D01*
X-5646079Y-1100012D01*
X-5652285Y-1113757D01*
X-5699256Y-1263644D01*
X-5701869Y-1276694D01*
X-5706913Y-1331586D01*
X-5703525Y-1343124D01*
X-5702135Y-1344329D01*
X-5694452Y-1346000D01*
X-5022115Y-1346000D01*
X-5006876Y-1341525D01*
X-5005671Y-1340135D01*
X-5004000Y-1332452D01*
X-5004000Y-272115D01*
X-5008475Y-256876D01*
X-5009865Y-255671D01*
X-5017548Y-254000D01*
X-5689884Y-254000D01*
X-5705123Y-258475D01*
X-5706328Y-259865D01*
X-5707291Y-264294D01*
X-6491500Y-264294D01*
X-6491500Y9769698D01*
X-6471498Y9837819D01*
X-6417842Y9884312D01*
X-6355615Y9895310D01*
X-6316013Y9892193D01*
X-6311085Y9892000D01*
X-6122115Y9892000D01*
X-6106876Y9896475D01*
X-6105671Y9897865D01*
X-6104000Y9905548D01*
X-6104000Y11907075D01*
X-3263355Y11907075D01*
X-3245430Y11710112D01*
X-3189590Y11520381D01*
X-3186737Y11514923D01*
X-3186735Y11514919D01*
X-3139280Y11424147D01*
X-3097960Y11345110D01*
X-2974032Y11190975D01*
X-2969308Y11187011D01*
X-2962067Y11180935D01*
X-2822526Y11063846D01*
X-2817128Y11060879D01*
X-2817123Y11060875D01*
X-2673820Y10982095D01*
X-2649213Y10968567D01*
X-2643346Y10966706D01*
X-2643344Y10966705D01*
X-2466564Y10910627D01*
X-2460694Y10908765D01*
X-2306773Y10891500D01*
X-2200231Y10891500D01*
X-2197175Y10891800D01*
X-2197168Y10891800D01*
X-2138660Y10897537D01*
X-2053167Y10905920D01*
X-2047266Y10907702D01*
X-2047264Y10907702D01*
X-1973947Y10929838D01*
X-1863831Y10963084D01*
X-1689204Y11055934D01*
X-1602938Y11126291D01*
X-1540713Y11177040D01*
X-1540710Y11177043D01*
X-1535938Y11180935D01*
X-1523656Y11195781D01*
X-1413799Y11328575D01*
X-1413797Y11328579D01*
X-1409870Y11333325D01*
X-1315802Y11507299D01*
X-1257318Y11696232D01*
X-1236645Y11892925D01*
X-1237933Y11907075D01*
X1236645Y11907075D01*
X1254570Y11710112D01*
X1310410Y11520381D01*
X1313263Y11514923D01*
X1313265Y11514919D01*
X1360720Y11424147D01*
X1402040Y11345110D01*
X1525968Y11190975D01*
X1530692Y11187011D01*
X1537933Y11180935D01*
X1677474Y11063846D01*
X1682872Y11060879D01*
X1682877Y11060875D01*
X1826180Y10982095D01*
X1850787Y10968567D01*
X1856654Y10966706D01*
X1856656Y10966705D01*
X2033436Y10910627D01*
X2039306Y10908765D01*
X2193227Y10891500D01*
X2299769Y10891500D01*
X2302825Y10891800D01*
X2302832Y10891800D01*
X2361340Y10897537D01*
X2446833Y10905920D01*
X2452734Y10907702D01*
X2452736Y10907702D01*
X2526053Y10929838D01*
X2636169Y10963084D01*
X2810796Y11055934D01*
X2897062Y11126291D01*
X2959287Y11177040D01*
X2959290Y11177043D01*
X2964062Y11180935D01*
X2976344Y11195781D01*
X3086201Y11328575D01*
X3086203Y11328579D01*
X3090130Y11333325D01*
X3184198Y11507299D01*
X3242682Y11696232D01*
X3263355Y11892925D01*
X3245430Y12089888D01*
X3189590Y12279619D01*
X3179919Y12298119D01*
X3100813Y12449432D01*
X3097960Y12454890D01*
X2974032Y12609025D01*
X2967727Y12614316D01*
X2951334Y12628071D01*
X2822526Y12736154D01*
X2817128Y12739121D01*
X2817123Y12739125D01*
X2654608Y12828467D01*
X2654609Y12828467D01*
X2649213Y12831433D01*
X2643346Y12833294D01*
X2643344Y12833295D01*
X2466564Y12889373D01*
X2466563Y12889373D01*
X2460694Y12891235D01*
X2306773Y12908500D01*
X2200231Y12908500D01*
X2197175Y12908200D01*
X2197168Y12908200D01*
X2138660Y12902463D01*
X2053167Y12894080D01*
X2047266Y12892298D01*
X2047264Y12892298D01*
X1973947Y12870162D01*
X1863831Y12836916D01*
X1689204Y12744066D01*
X1602938Y12673709D01*
X1540713Y12622960D01*
X1540710Y12622957D01*
X1535938Y12619065D01*
X1532011Y12614318D01*
X1532009Y12614316D01*
X1413799Y12471425D01*
X1413797Y12471421D01*
X1409870Y12466675D01*
X1315802Y12292701D01*
X1257318Y12103768D01*
X1256674Y12097643D01*
X1256674Y12097642D01*
X1249355Y12028000D01*
X1236645Y11907075D01*
X-1237933Y11907075D01*
X-1254570Y12089888D01*
X-1310410Y12279619D01*
X-1320081Y12298119D01*
X-1399187Y12449432D01*
X-1402040Y12454890D01*
X-1525968Y12609025D01*
X-1532273Y12614316D01*
X-1548666Y12628071D01*
X-1677474Y12736154D01*
X-1682872Y12739121D01*
X-1682877Y12739125D01*
X-1845392Y12828467D01*
X-1845391Y12828467D01*
X-1850787Y12831433D01*
X-1856654Y12833294D01*
X-1856656Y12833295D01*
X-2033436Y12889373D01*
X-2033437Y12889373D01*
X-2039306Y12891235D01*
X-2193227Y12908500D01*
X-2299769Y12908500D01*
X-2302825Y12908200D01*
X-2302832Y12908200D01*
X-2361340Y12902463D01*
X-2446833Y12894080D01*
X-2452734Y12892298D01*
X-2452736Y12892298D01*
X-2526053Y12870162D01*
X-2636169Y12836916D01*
X-2810796Y12744066D01*
X-2897062Y12673709D01*
X-2959287Y12622960D01*
X-2959290Y12622957D01*
X-2964062Y12619065D01*
X-2967989Y12614318D01*
X-2967991Y12614316D01*
X-3086201Y12471425D01*
X-3086203Y12471421D01*
X-3090130Y12466675D01*
X-3184198Y12292701D01*
X-3242682Y12103768D01*
X-3243326Y12097643D01*
X-3243326Y12097642D01*
X-3250645Y12028000D01*
X-3263355Y11907075D01*
X-6104000Y11907075D01*
X-6104000Y12028000D01*
X-6083998Y12096121D01*
X-6030342Y12142614D01*
X-5978000Y12154000D01*
X-4560115Y12154000D01*
X-4544876Y12158475D01*
X-4543671Y12159865D01*
X-4542000Y12167548D01*
X-4542000Y13061085D01*
X-4542193Y13066010D01*
X-4547786Y13137069D01*
X-4549733Y13148403D01*
X-4597639Y13327191D01*
X-4596335Y13327540D01*
X-4601488Y13391115D01*
X-4568055Y13453747D01*
X-4506068Y13488361D01*
X-4478119Y13491500D01*
X4478119Y13491500D01*
X4546240Y13471498D01*
G37*
G04 #@! TD.AperFunction*
G04 #@! TA.AperFunction,Conductor*
G36*
X-2181040Y8981687D02*
G01*
X-2135805Y8929483D01*
X-2106814Y8867311D01*
X-2106811Y8867306D01*
X-2104488Y8862324D01*
X-2101332Y8857817D01*
X-2101331Y8857815D01*
X-2064893Y8805777D01*
X-1976977Y8680219D01*
X-1819781Y8523023D01*
X-1815273Y8519866D01*
X-1815270Y8519864D01*
X-1765429Y8484965D01*
X-1637677Y8395512D01*
X-1632695Y8393189D01*
X-1632690Y8393186D01*
X-1442190Y8304355D01*
X-1436196Y8301560D01*
X-1430888Y8300138D01*
X-1430886Y8300137D01*
X-1365051Y8282497D01*
X-1221463Y8244022D01*
X-1011213Y8225628D01*
X-1005475Y8225126D01*
X-1000000Y8224647D01*
X-994525Y8225126D01*
X-989018Y8225126D01*
X-989018Y8223398D01*
X-927067Y8210943D01*
X-876079Y8161539D01*
X-859700Y8099416D01*
X-859700Y7303625D01*
X-867718Y7259395D01*
X-876745Y7235316D01*
X-883500Y7173134D01*
X-883500Y6733999D01*
X-903502Y6665878D01*
X-957158Y6619385D01*
X-1009500Y6607999D01*
X-1044669Y6607999D01*
X-1051490Y6607629D01*
X-1102352Y6602105D01*
X-1117604Y6598479D01*
X-1238054Y6553324D01*
X-1253649Y6544786D01*
X-1355724Y6468285D01*
X-1368285Y6455724D01*
X-1444786Y6353649D01*
X-1453324Y6338054D01*
X-1498478Y6217606D01*
X-1502105Y6202351D01*
X-1507631Y6151486D01*
X-1508000Y6144673D01*
X-1507999Y5855332D01*
X-1507629Y5848510D01*
X-1502105Y5797648D01*
X-1498478Y5782393D01*
X-1458402Y5675489D01*
X-1453219Y5604682D01*
X-1487140Y5542313D01*
X-1549396Y5508184D01*
X-1591302Y5506146D01*
X-1694286Y5518426D01*
X-1701289Y5517690D01*
X-1701290Y5517690D01*
X-1747525Y5512830D01*
X-1875749Y5499354D01*
X-1882417Y5497084D01*
X-2041810Y5442822D01*
X-2041813Y5442821D01*
X-2048477Y5440552D01*
X-2099481Y5409174D01*
X-2146278Y5380385D01*
X-2214779Y5361727D01*
X-2282493Y5383066D01*
X-2327921Y5437626D01*
X-2338300Y5487703D01*
X-2338300Y6120970D01*
X-2338008Y6129540D01*
X-2334571Y6179946D01*
X-2334571Y6179950D01*
X-2334055Y6187521D01*
X-2336643Y6202351D01*
X-2345096Y6250783D01*
X-2346059Y6257308D01*
X-2352855Y6313467D01*
X-2352855Y6313468D01*
X-2353768Y6321011D01*
X-2356454Y6328119D01*
X-2357019Y6330419D01*
X-2361686Y6347481D01*
X-2362367Y6349736D01*
X-2363672Y6357215D01*
X-2389473Y6415992D01*
X-2391965Y6422098D01*
X-2411974Y6475049D01*
X-2414657Y6482149D01*
X-2418956Y6488404D01*
X-2420048Y6490493D01*
X-2428662Y6505969D01*
X-2429862Y6507997D01*
X-2432912Y6514946D01*
X-2471987Y6565870D01*
X-2475853Y6571193D01*
X-2507918Y6617847D01*
X-2507923Y6617853D01*
X-2512225Y6624112D01*
X-2558963Y6665754D01*
X-2564240Y6670735D01*
X-2751396Y6857892D01*
X-2785421Y6920204D01*
X-2788300Y6946987D01*
X-2788300Y8381752D01*
X-2768298Y8449873D01*
X-2734571Y8484965D01*
X-2684730Y8519864D01*
X-2684727Y8519866D01*
X-2680219Y8523023D01*
X-2523023Y8680219D01*
X-2435106Y8805777D01*
X-2398669Y8857815D01*
X-2398668Y8857817D01*
X-2395512Y8862324D01*
X-2393189Y8867306D01*
X-2393186Y8867311D01*
X-2364195Y8929483D01*
X-2317277Y8982768D01*
X-2249000Y9002229D01*
X-2181040Y8981687D01*
G37*
G04 #@! TD.AperFunction*
M02*
